<?xml version="1.0" encoding="UTF-8"?>
<svg viewBox="0 0 616 495" version="1.1" xmlns="http://www.w3.org/2000/svg" xmlns:xlink="http://www.w3.org/1999/xlink">
    <!-- Generator: Sketch 53.2 (72643) - https://sketchapp.com -->
    <title>MusicNoteWave1 [Converted]</title>
    <desc>Created with Sketch.</desc>
    <g id="Page-2" stroke="none" stroke-width="1" fill="none" fill-rule="evenodd">
        <g id="Home" transform="translate(-331.000000, -8.000000)" fill="#AFADAD">
            <g id="Header">
                <g id="MusicNoteWave1-[Converted]" transform="translate(331.000000, 8.000000)">
                    <g id="Group" transform="translate(38.000000, 4.000000)">
                        <path d="M366.077412,1.18074424 C364.621296,4.95517266 362.220323,9.40421612 363.40463,15.9539596 C364.336544,20.9666055 365.799132,25.8511599 366.446295,29.8476135 C367.332907,35.1079029 366.860479,40.7695455 364.343016,45.2869045 C360.304721,52.5112629 352.791163,57.6434609 348.20278,60.1796718 C347.471487,60.4870913 347.096132,60.2565267 347.070246,59.5050568 C350.843204,56.7553601 357.690184,52.5283418 361.09426,45.7565732 C363.016333,41.9906842 363.838229,37.191524 363.093992,32.8449537 C362.343284,27.8493867 359.431052,22.3926904 355.68398,19.7625457 L333.63515,59.1976373 C331.887811,62.323069 328.399604,64.0651128 324.510157,64.5091632 C320.691897,65.0044502 316.498284,64.1590466 313.437204,62.3145295 C311.482773,61.1446275 310.020186,59.4282019 309.347137,57.626382 C308.6029,55.7904044 308.699974,53.800717 309.703076,51.9903577 C311.301568,49.1381878 314.841547,47.4729987 318.666278,46.9777118 C322.516896,46.4141093 326.645794,47.0374878 329.428593,48.7112162 C331.874867,50.1799983 333.861657,51.7341747 334.463518,53.6640861 C344.429822,35.8252151 354.40907,17.9863441 364.381846,0.147473105 C365.307288,-0.0233155113 365.79266,0.437813753 366.077412,1.18074424 Z" id="Path"></path>
                        <path d="M475.49149,126.543346 L483.774614,118.708621 C492.389313,121.596006 501.967457,121.078862 509.856444,116.450427 C516.118836,112.813184 524.877426,101.20331 522.643986,99.1692118 C517.582772,94.3770144 505.81498,98.0314959 500.734998,101.125738 C496.493338,103.694218 492.827242,106.831556 489.273757,110.477419 C478.400593,107.064271 465.175122,102.099692 454.771168,109.658608 C444.661253,116.941714 441.063975,130.714972 446.681985,141.540511 C447.670454,143.436704 448.896657,145.246707 450.441922,146.9619 L442.602984,154.529434 C441.414318,155.753341 440.0192,156.753152 438.792998,157.50301 C434.163457,160.054252 429.546429,159.226822 425.899102,153.736481 C424.810534,152.081621 423.615612,147.927234 425.417379,146.582661 C425.967919,148.642616 429.846723,152.572908 434.057103,149.780332 C437.066304,147.797949 438.129847,143.169513 436.071578,140.040795 C433.781833,136.636266 428.970864,136.144979 425.817772,138.566935 C421.088133,142.18694 420.994291,150.099238 424.209945,155.020721 C428.288946,161.321254 434.063359,163.114018 439.756442,159.657775 C440.538459,159.175108 441.383038,158.675202 442.233872,157.908106 L452.268714,148.496092 C457.936773,152.926289 464.436898,154.270863 470.417764,150.642238 C477.656113,146.332708 481.128269,136.86898 476.917889,128.89635 C476.504984,128.086158 476.023262,127.310443 475.49149,126.543346 L475.49149,126.543346 Z M469.149199,129.719336 L452.807751,145.257862 C451.714595,144.105255 450.776716,142.848654 449.969271,141.418728 C445.000377,132.570521 446.062478,120.940459 454.714564,115.619403 C463.348016,110.393674 473.347914,113.990154 482,117.491305 L474.590138,124.545605 C470.726823,120.845131 464.018817,119.553865 459.466068,122.361719 C454.776675,125.160907 452.416451,131.105931 453.435074,136.799635 C453.602774,137.276277 454.112086,137.544929 454.447486,137.345606 C454.664875,137.206947 454.820153,136.94696 454.776675,136.556981 C454.515808,133.055829 455.261142,129.676005 458.205212,127.873432 C461.621326,125.698212 466.391464,126.746824 469.149199,129.719336 L469.149199,129.719336 Z M513.740641,110.221655 C507.494711,114.4052 498.536732,113.293119 492,110.530567 C493.991364,108.465272 496.185026,106.523542 498.555698,105.067245 C502.69015,102.693039 511.806173,99.6215752 515.53603,104.458248 C516.69924,106.717715 515.517065,109.047791 513.740641,110.221655 L513.740641,110.221655 Z M470.459862,132.148847 C473.48219,137.619125 471.929493,144.044799 466.91358,147.536645 C462.900849,150.123825 457.821039,149.743357 454,147.096994 L470.459862,132.148847 Z" id="Shape"></path>
                        <path d="M80.4747566,277.580113 L72.6809683,276.920228 C69.8052345,271.322578 64.8322297,266.760266 58.75106,264.871628 C53.9429062,263.358443 44.1251141,264.132101 44.2624899,266.14589 C44.4914496,270.810598 52.0196447,275.077099 55.9852267,276.237588 C59.2914049,277.216038 62.5884246,277.659755 66.0686121,277.819037 C69.8143928,284.781967 73.9723011,293.61078 82.6910866,295.453909 C91.1259621,297.274283 99.4234617,292.950895 101.777167,285.328079 C102.189295,283.996931 102.44573,282.574764 102.491522,281.038824 L109.937291,281.596313 C111.109565,281.641822 112.263522,281.903501 113.225153,282.176557 C116.714499,283.3598 118.601127,286.033474 117.795188,290.299975 C117.547912,291.574237 116.164995,294.031742 114.644703,293.724554 C115.349899,292.529933 115.294948,288.843676 111.897186,287.978999 C109.479372,287.364623 106.759331,288.877808 106.292253,291.301181 C105.806858,293.963478 107.940763,296.580265 110.642487,297.092245 C114.690495,297.854527 118.482067,294.373062 119.233055,290.584409 C120.203844,285.737664 118.207316,282.051406 113.765498,280.743013 C113.151886,280.560975 112.492482,280.367561 111.714019,280.276542 L102.308354,279.434619 C101.612316,274.633383 99.0479678,270.776466 94.3771899,269.399808 C88.7539395,267.693208 82.5628691,270.173467 80.8685673,275.805249 C80.7037164,276.39687 80.5754989,276.977114 80.4747566,277.580113 L80.4747566,277.580113 Z M85.5485037,279.51426 L100.980388,280.879541 C100.980388,281.94901 100.85217,282.972971 100.577419,284.008308 C98.8739584,290.425126 92.8660558,295.032947 86.0705318,293.019159 C79.3207997,290.971238 76.0512552,284.349628 73.404481,278.433413 L80.4106479,279.059167 C80.5846573,282.631651 83.3046986,286.579586 86.8856284,287.649056 C90.5306668,288.775412 94.5145657,287.341868 96.6851037,284.304119 C96.8224795,284.008308 96.6942621,283.621479 96.4378272,283.553215 C96.2638178,283.496328 96.0623333,283.541838 95.9066407,283.735252 C94.3863482,285.419098 92.4264532,286.5227 90.1185394,285.84006 C87.3893397,285.089155 85.5118701,282.222067 85.5485037,279.51426 L85.5485037,279.51426 Z M54.5382014,265.611155 C59.5112062,266.896794 63.3668876,271.800426 65.2809907,276.248965 C63.3577292,276.146569 61.3886757,275.907645 59.5569981,275.37291 C56.4431462,274.360327 50.5726193,271.174673 50.9939052,267.226737 C51.4701414,265.668042 53.1186513,265.235703 54.5382014,265.611155 L54.5382014,265.611155 Z M85.8140969,278.046584 C86.995529,274.087271 90.842052,271.936954 94.9541683,272.813009 C98.132129,273.609423 100.403409,276.260342 100.980388,279.332223 L85.8140969,278.046584 Z" id="Shape"></path>
                        <path d="M216.750132,88.7270252 C217.263002,92.3108862 215.403849,95.8492379 212.573907,98.5342893 C209.66154,101.310359 205.732592,103.312771 202.069236,103.801996 C199.669739,104.143316 197.535834,103.676845 195.878166,102.698394 C194.138072,101.742698 193.094016,100.229512 192.810106,98.2043465 C192.361345,95.007315 194.101439,91.423454 196.931381,88.6587612 C199.669739,85.8258044 203.52542,83.6527331 206.93234,83.1862623 C209.835549,82.7880555 212.115988,82.8449422 213.801132,83.9826759 C210.952873,63.9585636 208.095456,43.9572059 205.256355,23.944471 C205.897443,23.1139254 206.639272,23.0115294 207.509319,23.6486602 L216.750132,88.7270252 Z" id="Path"></path>
                        <path d="M170.467682,403.100301 C173.059506,404.875166 174.240938,408.072197 174.305047,411.360248 C174.378314,414.750694 173.38005,418.3118 171.548372,420.826192 C170.36694,422.487283 168.819172,423.511243 167.234771,423.966337 C165.604578,424.466939 164.029335,424.205261 162.563993,423.215432 C160.256079,421.622605 158.983064,418.471083 158.864004,415.137523 C158.653362,411.815341 159.505092,408.208726 161.199393,405.853617 C162.63726,403.851206 164.00186,402.497303 165.714479,402.133228 C151.244226,392.200813 136.783131,382.268398 122.331194,372.324606 C122.175502,371.448551 122.541837,370.936571 123.448518,370.777288 L170.467682,403.100301 Z" id="Path"></path>
                        <path d="M63.6233225,325.717624 C66.2243047,325.194267 68.9077124,326.320623 71.0141417,328.163751 C73.1846797,330.063767 74.8423479,332.714686 75.3735345,335.240455 C75.7307116,336.901546 75.4925935,338.414732 74.8606647,339.609352 C74.2378943,340.872236 73.1846797,341.66865 71.7101792,341.975838 C69.393107,342.442309 66.6822241,341.395594 64.5208445,339.552465 C62.313673,337.777601 60.5369457,335.194945 60.0332343,332.839837 C59.5936317,330.826048 59.5386813,329.233221 60.2805108,328.004469 C45.7553072,330.962576 31.2209452,333.909306 16.7049,336.856037 C16.0638128,336.446452 15.9539122,335.934472 16.375198,335.308719 L63.6233225,325.717624 Z" id="Path"></path>
                        <path d="M1.94157829,171.122375 C5.08290542,172.828976 8.70046874,175.445763 14.5893123,175.11582 C19.0952393,174.842764 23.5370575,174.080483 27.1363041,173.943955 C31.852874,173.739163 36.76177,174.7745 40.4251253,177.505061 C46.2864937,181.885336 49.9132154,189.098567 51.6075172,193.44471 C51.7815266,194.12735 51.5434085,194.445915 50.8748462,194.377651 C48.8966343,190.725526 45.9934253,184.194935 40.4526004,180.429037 C37.375382,178.301475 33.2632658,177.049968 29.3709508,177.243382 C24.9016574,177.357156 19.7821184,179.336812 17.034602,182.385938 L49.0431685,206.266968 C51.5892004,208.166983 52.7065238,211.443656 52.6515735,214.947876 C52.6332567,218.383831 51.4060327,222.013202 49.4278208,224.53897 C48.1731217,226.143175 46.4971366,227.246776 44.8394684,227.644983 C43.1451666,228.100077 41.4142312,227.804266 39.9397307,226.712042 C37.6226585,224.982686 36.5786023,221.660504 36.5877606,218.224548 C36.5419687,214.731706 37.5677082,211.136468 39.3627523,208.849623 C40.9288366,206.835835 42.5315546,205.254385 44.2991235,204.924442 C29.8197118,194.115972 15.3403001,183.31888 0.851730098,172.51041 C0.805938157,171.679865 1.25469918,171.293035 1.94157829,171.122375 Z" id="Path"></path>
                        <path d="M106.283094,196.323176 C120.744189,204.969951 135.223601,213.616727 149.684696,222.27488 C147.413416,223.401237 146.341884,224.766517 145.490154,226.256948 C142.522836,231.342618 142.687687,239.87562 147.660692,243.095406 C149.739646,244.415177 151.919343,245.177459 154.291365,244.028348 C155.756707,243.322953 156.874031,241.96905 157.780711,240.512751 C160.812137,235.711515 160.500752,226.768928 155.601015,223.662915 L107.244725,194.753103 C106.548688,195.037537 106.264778,195.583649 106.283094,196.323176 L106.283094,196.323176 Z M148.338413,235.711515 C148.045344,233.060595 147.807226,226.689287 149.83123,224.459329 C150.252516,223.924594 150.985187,223.560519 151.653749,223.890462 C153.540377,224.777894 154.740126,228.919245 155.005719,232.753407 C155.353738,236.564815 154.703493,240.489996 153.540377,242.105578 C152.743598,242.981633 152.27652,243.266066 151.47974,242.788218 C149.739646,241.912163 148.723065,238.97681 148.338413,235.711515 Z" id="Shape"></path>
                        <path d="M130.418269,446.315544 C138.834828,451.355704 147.269704,456.384486 155.704579,461.436024 C154.376613,462.095909 153.753842,462.880946 153.259289,463.757001 C151.528354,466.715108 151.619938,471.687004 154.523147,473.564265 C155.732054,474.326546 157.014229,474.770262 158.387987,474.110377 C159.239717,473.700793 159.889962,472.904379 160.421149,472.062456 C162.188718,469.263631 162.014708,464.052811 159.157291,462.243815 L130.995248,445.405357 C130.573962,445.564639 130.409111,445.883205 130.418269,446.315544 L130.418269,446.315544 Z M154.916958,469.252254 C154.742948,467.704936 154.605572,463.995925 155.787005,462.698908 C156.034281,462.380343 156.464725,462.175551 156.849378,462.368965 C157.948384,462.880946 158.644422,465.304318 158.800114,467.534276 C159.001599,469.752857 158.626105,472.039702 157.948384,472.98402 C157.481306,473.496001 157.206555,473.666661 156.748635,473.382227 C155.722896,472.870247 155.145917,471.163647 154.916958,469.252254 Z" id="Shape"></path>
                        <path d="M124.279327,116.46565 L146.460943,141.518546 C144.290405,141.461659 142.083234,142.917958 139.738686,144.886237 C136.982012,147.218591 134.866424,151.189282 134.106278,155.250991 C133.227072,159.301323 133.630041,163.465428 135.919638,166.05946 C137.375822,167.697797 139.335717,168.460078 141.451305,168.32355 C143.502784,168.255286 145.673322,167.401986 147.624059,165.740895 C150.563901,163.260636 152.871815,159.346832 153.815129,155.228236 C154.767601,151.246168 154.291365,147.059308 151.717858,144.169465 L105.101662,91.5151515 L103.453153,92.8918092 C103.947705,93.6996001 106.347203,97.2493291 105.632849,102.141584 C104.735327,107.636837 103.947705,112.051244 104.057606,116.260858 C104.167507,124.088466 108.032347,130.846604 111.659068,134.953822 C113.280103,136.774196 114.727128,137.877798 116.311529,138.731098 C117.025884,141.5413 118.4088,144.02156 120.469438,146.353914 C124.370911,150.76832 129.041689,153.362353 132.824103,154.465955 C133.391923,154.079125 133.547616,153.601277 133.135488,153.009655 C131.615196,152.884505 125.616452,149.505436 123.07042,146.365291 C120.240478,142.906581 118.775136,140.722132 118.729344,136.148443 C118.683552,130.926245 122.685768,122.108809 124.279327,116.46565 L124.279327,116.46565 Z M115.936036,137.18378 C115.166731,136.410121 114.131833,135.204124 113.371687,134.202918 C111.979612,132.507695 110.065509,129.151381 109.277887,126.409443 C106.850915,117.683026 109.14967,111.311717 112.355106,102.994884 C116.247421,107.648215 117.190735,114.895578 116.467222,119.810587 C115.578858,125.294464 115.249156,128.093288 115.304107,132.01847 C115.322424,133.770579 115.551383,135.534067 115.936036,137.18378 Z" id="Shape"></path>
                        <path d="M162.112629,275.088477 L184.09276,274.144158 C183.18608,275.190873 183.057862,276.886096 183.149446,278.83162 C183.250188,281.14122 184.477412,283.792139 186.290773,285.79455 C188.049184,287.853848 190.384573,289.332902 192.655853,289.230506 C194.09372,289.162242 195.28431,288.502356 196.062773,287.398755 C196.850395,286.35204 197.280839,284.929873 197.207572,283.291536 C197.088513,280.834031 195.980348,278.114848 194.212779,275.987286 C192.518477,273.916611 190.146455,272.471689 187.600423,272.585462 L141.396355,274.576496 L141.451305,275.953154 C142.074075,276.032795 144.894859,276.260342 147.156981,278.581319 C149.675537,281.232238 151.653749,283.40531 153.879238,285.043646 C158.009671,288.138282 163.092576,288.923318 166.691823,288.775412 C168.294541,288.707148 169.457656,288.422715 170.538346,287.978999 C172.287598,288.752658 174.137592,289.071223 176.189071,288.980204 C180.053911,288.809544 183.286822,287.535283 185.384093,286.101738 C185.411568,285.658022 185.2284,285.396343 184.752164,285.350834 C184.074443,286.056229 179.898218,287.683188 177.242286,287.683188 C174.302443,287.705943 172.571508,287.558037 170.162852,285.737664 C167.397019,283.689743 164.411384,278.160357 162.112629,275.088477 L162.112629,275.088477 Z M169.567557,287.569415 C168.853202,287.637679 167.799988,287.671811 166.975733,287.649056 C165.537866,287.660433 163.019309,287.250849 161.260898,286.545454 C155.729232,284.247232 153.338893,280.538221 150.289149,275.600457 C154.282207,275.532193 158.440115,277.989697 160.720554,280.322051 C163.220794,282.972971 164.54876,284.25861 166.618556,285.805928 C167.525236,286.499945 168.550975,287.102944 169.567557,287.569415 Z" id="Shape"></path>
                    </g>
                    <g id="Group" fill-rule="nonzero">
                        <path d="M116.985082,251.927752 C117.186449,251.723394 112.35364,251.882339 106.980802,246.557683 C101.900862,241.539564 96.6470134,230.617775 100.921486,217.675115 C109.809094,189.927867 163.67477,178.710894 209.238633,199.078555 C255.65373,219.287271 293.821932,268.321789 304.842199,326.052867 C310.489629,354.855963 309.363804,386.168119 298.471679,415.709174 C287.616166,444.61445 268.577831,474.484748 236.395721,489.005505 C220.716553,495.976376 200.772065,497.82695 185.358336,488.835206 C169.972065,480.524656 159.244695,466.844037 151.876493,452.482225 C137.213314,423.383945 134.687073,390.391514 141.011828,360.169266 C155.345498,299.520413 195.801961,249.05539 241.045468,216.948509 C286.206597,184.557798 339.047132,170.071101 378.240475,177.552867 C417.91893,184.330734 438.62312,205.799656 445.11263,215.404472 C452.078098,225.54289 455.968143,238.780734 451.60214,250.32695 C447.501575,261.907225 436.93896,269.831766 426.96214,273.476147 C405.800297,281.684518 390.441486,271.432569 390.871679,270.569725 C390.450639,268.707798 396.610639,276.382569 414.678752,274.497936 C423.23685,273.362615 434.778841,269.593349 443.492541,259.761468 C452.453373,250.236124 454.412125,233.070069 444.224785,218.163303 C440.087608,211.01078 423.374146,190.336583 386.734502,181.27672 C350.689807,171.036124 298.252006,181.571904 251.992511,211.601147 C205.559108,241.130849 163.391025,289.870183 145.167311,349.531307 C136.508529,379.231307 136.673284,412.246445 148.599703,442.366514 C154.567489,457.284633 163.629004,471.680505 177.04737,482.204931 C190.227756,493.16078 209.430847,496.895986 226.336523,491.491858 C260.651293,481.35344 282.417236,451.664794 294.700624,423.043349 C307.212838,393.661239 310.123507,361.997133 305.363923,332.580963 C296.10104,273.759977 259.131887,222.727294 212.497117,200.895069 C166.823418,178.744954 111.575632,188.894725 101.296761,216.744151 C96.573789,229.868463 101.598811,241.164908 106.770282,246.353326 C112.243804,251.859633 117.186449,251.746101 116.985082,251.927752 Z" id="Path"></path>
                        <path d="M122.1474,257.990367 C122.403685,257.820069 117.232214,257.524885 112.637385,251.17844 C108.426984,245.274771 105.461397,232.468349 114.715126,220.87672 C135.767132,197.625344 192.955364,205.640711 228.734621,241.301147 C264.852541,277.041055 285.199762,337.769381 268.779198,397.930046 C260.660446,427.686812 240.075245,456.421789 209.540684,474.098739 C194.502229,482.954243 176.095453,488.449197 157.697831,486.3375 C139.281902,483.930619 123.227459,472.986124 113.259792,458.885436 C93.004101,430.354817 89.3611887,394.751147 92.8851114,361.849541 C96.7110847,328.641399 108.518514,296.477752 126.696464,268.594266 C162.38419,212.316399 218.107935,171.115596 274.31679,150.645757 C330.351738,129.256307 388.784785,131.413417 424.838633,150.759289 C461.88101,168.992546 476.297058,195.445528 479.93997,206.855505 C484.315126,218.787729 484.919227,232.763532 478.530401,244.128096 C472.132422,255.356422 460.462288,262.645183 449.56101,265.438073 C426.678395,271.943463 411.54841,260.669725 411.905379,259.829587 C411.54841,257.944954 417.571114,265.960321 436.627756,265.540252 C445.74419,265.040711 458.18318,262.213761 468.590193,252.881422 C479.436553,243.923739 484.241902,226.962041 478.46633,209.409977 C476.022467,201.11078 465.624606,176.372133 432.069539,156.867317 C415.777117,147.058142 393.91049,139.599083 368.730461,137.521445 C343.477207,135.795757 315.349896,139.315252 287.057831,148.057225 C230.556077,165.620642 173.276315,204.494037 134.604695,259.182454 C115.11786,286.339335 101.287608,317.889908 95.6767905,351.086697 C90.2581872,384.011009 91.805052,419.591972 108.619198,449.927752 C117.021694,464.732339 130.421753,478.140482 148.087132,483.362959 C165.660981,488.710321 185.102051,485.258945 201.037504,477.629587 C233.430134,462.257339 255.95578,433.919725 266.207192,404.401376 C285.79471,344.025 266.838752,281.434748 231.10526,244.252982 C196.149777,206.617087 137.881486,197.443693 115.557207,220.138761 C105.498009,231.582798 108.289688,244.854702 112.518395,250.92867 C117.076612,257.502179 122.431144,257.820069 122.1474,257.990367 Z" id="Path"></path>
                        <path d="M125.643863,261.657454 C126.009985,261.487156 120.335097,260.851376 116.82948,253.517202 C113.470312,247.102638 113.497771,231.957454 128.435542,224.714106 C159.446062,212.077982 211.115007,238.746674 230.958811,286.248509 C241.329212,309.885894 245.76844,338.18945 241.164458,367.299083 C236.066211,395.727523 223.608915,427.53922 194.740208,447.395986 C166.933254,466.5375 123.730877,474.745872 91.1368796,455.252408 C60.2545022,433.987844 50.1678455,396.204358 49.8657949,361.826835 C50.8909361,291.209862 88.1712927,222.931651 140.956909,175.134633 C193.998811,126.894839 262.509361,98.3982798 325.692838,91.6204128 C357.325765,88.3506881 387.695572,90.5077982 413.946508,97.5922018 C440.142526,104.880963 461.798633,117.085665 477.62425,130.505161 C509.916196,157.639335 518.520059,186.964679 519.966241,199.441858 C521.897533,212.49805 519.636731,226.882569 511.344071,237.804358 C502.877504,248.589908 489.596434,254.57305 477.880535,256.1625 C453.313759,259.988532 438.83364,247.5 439.07162,246.671216 C438.815334,244.809289 444.554294,253.119839 464.416404,254.856881 C474.008796,255.356422 487.317325,253.948624 499.646478,245.615367 C512.378366,237.702179 520.066924,220.899427 517.989183,201.791972 C517.421694,192.652638 511.719346,165.847706 483.399822,138.259404 C456.004755,110.557569 402.615037,87.6013761 339.349183,92.1426606 C276.724042,95.6508028 207.261575,121.468005 151.739198,167.459862 C96.7293908,213.304128 56.1813967,280.481078 51.3852006,351.518119 C48.9596434,386.315711 57.023477,424.14461 84.0341159,449.110321 C113.131649,473.428899 158.311085,468.342661 187.875423,451.074427 C218.99578,433.261239 233.65896,401.438188 239.645052,372.623739 C245.475542,343.218922 241.960773,314.256881 232.121248,289.92695 C213.659554,240.869725 161.615334,212.645642 129.543061,224.30539 C113.790669,230.992431 113.406241,246.659862 116.719643,253.244725 C120.188648,260.82867 126.037444,261.487156 125.643863,261.657454 Z" id="Path"></path>
                        <path d="M128.664368,262.134289 C129.176939,261.963991 122.888796,261.021674 120.618841,252.813303 C117.799703,245.899197 123.300684,228.665023 142.165111,230.016055 C176.92838,231.684977 216.149183,273.918922 215.288796,327.61961 C215.297949,354.140711 207.417177,383.818005 187.015037,408.670183 C167.445825,433.125 130.732957,452.221101 93.2786924,443.819725 C56.1539376,435.077752 30.809153,401.631193 22.855156,367.117431 C14.2512927,331.96789 19.1390193,294.366055 31.4224071,259.432225 C56.5292125,189.37156 110.825082,127.632798 177.761308,90.2012615 C244.459554,52.1793578 322.342823,38.203555 388.464428,45.6966743 C455.464725,52.0090596 508.167964,83.8548165 534.272452,117.494381 C561.859733,150.895528 565.75893,182.219037 565.191441,195.400115 C564.962615,209.17156 560.532541,223.851261 550.098068,234.069151 C539.489688,244.173509 524.469539,248.033601 512.12208,247.954128 C486.237266,247.976835 472.882972,234.091858 472.983655,233.28578 C472.855513,231.44656 478.155126,240.075 498.392511,244.695757 C508.268648,246.523624 522.309421,247.238876 536.661397,240.540482 C551.434413,234.318922 561.859733,217.652408 562.857415,197.568578 C563.800178,187.941055 562.299079,159.558028 538.665914,126.429358 C526.977474,110.069381 509.659911,93.187156 486.75899,78.9048165 C463.574324,65.0311927 434.641545,54.3932339 402.267221,49.1026376 C337.509421,38.7258028 259.534621,49.4886468 190.740327,84.6154817 C121.982645,119.458486 64.6296582,179.653211 36.2826746,249.475459 C22.3791976,284.261697 15.4594948,321.931651 21.7476374,357.853211 C27.3035364,393.24117 49.6552749,428.118234 85.4894502,441.106307 C122.010104,453.311009 161.523804,436.962385 182.658187,412.870872 C204.936701,388.677179 214.0989,358.59117 214.831144,331.581881 C217.650282,276.836697 178.75899,232.956537 143.409926,230.129587 C124.197682,227.904358 117.616642,245.297477 120.563923,252.495413 C122.687429,260.987615 129.204398,261.975344 128.664368,262.134289 Z" id="Path"></path>
                        <path d="M132.63679,259.148394 C133.231738,259.046216 126.513403,257.672477 125.506568,248.896445 C125.149599,244.854702 126.568321,239.087271 131.986924,235.363417 C137.524517,231.480619 146.329747,233.206307 153.972541,236.657683 C185.248499,251.712041 207.975513,304.629358 183.015156,356.252408 C171.335869,381.15 147.666092,407.375917 112.26211,413.858601 C94.9536999,417.219151 76.0801189,414.233257 59.4581872,406.842317 C42.8454086,399.122133 29.5277266,385.861583 20.0909361,370.64828 C-17.8118276,307.240596 2.28826152,223.66961 45.9574443,160.023509 C89.8371471,94.9355505 159.299614,43.1308486 236.258425,18.403555 C313.31792,-6.44862385 395.356672,-4.29151376 460.4989,16.3713303 C526.638811,36.3416284 572.806776,77.4516055 594.270669,115.212385 C616.887845,153.109404 616.942764,185.534174 614.260921,199.067202 C612.018425,213.13383 605.327548,227.893005 592.394294,236.521445 C579.387816,245.172592 563.067935,245.411009 550.656404,243.129014 C524.734978,237.997362 513.257058,222.840826 513.211293,221.989335 C513.266211,220.206881 517.851887,229.119151 537.448559,237.270757 C547.105022,240.915138 561.154948,244.411927 577.319227,240.642661 C594.00523,237.429702 607.716493,221.54656 611.698068,201.042661 C613.968024,191.21078 616.439346,161.998968 597.40101,124.919381 C578.985082,88.4301606 537.832987,45.2311927 473.615215,22.6155963 C410.651412,-0.715252294 329.106924,-6.26697248 250.811768,15.4630734 C172.525765,36.8638761 100.353997,86.7612385 53.4995542,151.031766 C7.05699851,214.008028 -17.2077266,297.28383 16.6768499,363.461697 C32.0448143,396.215711 69.3709361,418.717775 105.726835,414.346789 C142.073581,410.509404 168.232987,384.987385 180.845884,359.896789 C208.570461,308.080734 186.365171,253.483142 155.080059,237.338876 C147.464725,233.512844 138.503893,231.491972 132.627637,235.011468 C126.8063,238.51961 125.286895,244.468693 125.497415,248.589908 C126.357801,257.593005 133.240892,259.068922 132.63679,259.148394 Z" id="Path"></path>
                    </g>
                </g>
            </g>
        </g>
    </g>
</svg>
