<?xml version="1.0" encoding="UTF-8"?>
<svg width="111px" height="166px" viewBox="0 0 111 166" version="1.1" xmlns="http://www.w3.org/2000/svg" xmlns:xlink="http://www.w3.org/1999/xlink">
    <!-- Generator: Sketch 53.2 (72643) - https://sketchapp.com -->
    <title>BassDesign</title>
    <desc>Created with Sketch.</desc>
    <defs>
        <polygon id="path-1" points="0.101741742 0.180314634 76.8705105 0.180314634 76.8705105 75.9486073 0.101741742 75.9486073"></polygon>
    </defs>
    <g id="Page-2" stroke="none" stroke-width="1" fill="none" fill-rule="evenodd">
        <g id="Home" transform="translate(-1054.000000, -2578.000000)">
            <g id="ContactSection" transform="translate(384.000000, 2407.000000)">
                <g id="BassDesign" transform="translate(663.492372, 159.000000)">
                    <g id="bassdesign" transform="translate(60.500000, 103.464871) rotate(178.000000) translate(-60.500000, -103.464871) translate(3.000000, 30.964871)" fill="#A483B8">
                        <path d="M89.4826007,115.019158 C87.3161114,135.250952 64.3371189,138.911944 51.8354104,129.81727 C38.4813127,119.951862 32.0528774,96.7142007 42.2460317,72.012143 C54.8542888,39.2944409 77.762249,22.8007113 91.1518629,13.0123764 C98.231763,7.73196413 105.985307,3.60338364 114.166372,0.757689368 C76.1995354,12.0104208 25.7309907,38.6007794 23.2448555,95.3654144 C21.3269797,131.628498 54.9608375,154.133961 80.0708031,140.646097 C92.6790602,133.748019 102.481536,118.217708 98.8233658,101.723978 C97.3285549,95.5708402 94.2631447,90.0006028 89.9798277,85.654153 C85.8955622,81.9130146 80.2216858,80.9759054 75.2965112,83.229026 C70.3713366,85.4821465 67.0285096,90.5441287 66.645673,96.3288332 C65.9893321,104.725803 71.4086864,112.252525 79.076349,113.593298 C82.3793572,113.901592 89.4826007,108.968888 89.4826007,115.019158 Z" id="Path"></path>
                        <path d="M12.1104011,134.683114 C9.4571832,134.312688 7.05146411,132.832011 5.42449683,130.568061 C3.79752955,128.304111 3.08315302,125.443125 3.43912243,122.616894 C3.48627849,119.802108 4.63581979,117.136577 6.60956656,115.265337 C8.58331333,113.394097 11.2014194,112.487654 13.8303241,112.76536 C19.1490397,113.61298 22.885472,118.792624 22.2866124,124.487922 C22.2310289,127.286992 21.1212272,129.944582 19.2071049,131.862274 C17.2929826,133.779967 14.7354523,134.796549 12.1104011,134.683114 L12.1104011,134.683114 Z" id="Path"></path>
                        <path d="M9.38290042,95.6146801 C3.97458764,94.7114645 0.181452067,89.3696972 0.774046692,83.4910709 C1.11466408,77.7681107 5.63359529,73.3937735 10.9353167,73.6549351 C16.4015021,74.5034059 20.2583561,79.8858093 19.650017,85.8166689 C19.1504004,91.4951292 14.6594594,95.7808788 9.38290042,95.6146801 L9.38290042,95.6146801 Z" id="Path"></path>
                        <path d="M75.5287386,91.0080906 C75.5287386,90.6876739 75.7784812,90.1269447 75.9211913,89.7264239 C77.5449202,87.0619502 80.1845904,85.402485 83.0566953,85.2405905 C87.5520628,84.8400697 91.2268474,87.0429343 91.5122675,90.2871531 C91.7976877,93.5313718 88.3369682,96.495226 83.9843108,97.0559552 C81.0213366,97.5935452 78.0222673,96.3651192 76.0639014,93.8117364" id="Path"></path>
                        <path d="M83.0978112,15.3076137 C83.0978112,15.3076137 83.0978112,15.5255933 83.0978112,15.5255933 C83.0978112,16.2521919 82.2322928,17.3057599 80.8023058,18.3229979 C79.3723188,19.340236 77.0391822,20.4664638 76.3241887,19.9578448 C75.6091952,19.4492258 76.6628698,18.1050183 78.4315379,16.8334708 C79.5082442,15.9472697 80.8049839,15.3463587 82.1946615,15.0896341" id="Path"></path>
                    </g>
                    <g id="Jasmine" transform="translate(46.507628, 0.000000)">
                        <g id="Group-3">
                            <mask id="mask-2" fill="white">
                                <use xlink:href="#path-1"></use>
                            </mask>
                            <g id="Clip-2"></g>
                        </g>
                        <path d="M37.9553688,38.6471896 C37.722607,38.7206521 37.6036081,38.6002486 37.503173,38.4563747 C37.1516503,37.9550458 37.0150395,37.3807236 36.9581581,36.7887987 C36.8082195,35.2273091 36.7941776,33.6601866 36.7753758,32.0932988 C36.7713298,31.7710494 36.7411041,31.4488 36.7213503,31.0983861 C36.5994954,31.2044726 36.6121093,31.312202 36.6106813,31.4117167 C36.5854535,33.15698 36.5618918,34.9029474 36.7261102,36.6437512 C36.7889417,37.3086693 36.9186504,37.9623216 37.3251507,38.5258473 C37.3608503,38.5756047 37.4346296,38.635689 37.3806041,38.6969469 C37.3275306,38.7575007 37.2408994,38.8161769 37.1533163,38.7816753 C36.9888598,38.7173662 36.8198814,38.6680783 36.7099264,38.4997951 C36.427185,38.0672345 36.324132,37.5816308 36.2727245,37.0868735 C36.1901392,36.2891126 36.1370657,35.4885353 36.0709023,34.6802127 C36.0090229,34.7449912 35.998789,34.8212702 35.998075,34.8926204 C35.9880791,35.8863596 35.9549974,36.8833846 36.212273,37.8567045 C36.325084,38.2838669 36.4738326,38.7011716 36.9019906,38.9391621 C36.8332092,39.0109817 36.7596679,39.0093387 36.6670868,38.9844601 C35.3459611,38.6284132 34.2426033,37.9785162 33.3831933,36.8852623 C32.2198602,35.4052152 31.2750089,33.8167346 30.5391198,32.0930641 C29.9738751,30.7693303 29.4512319,29.4317488 29.0592496,28.0502777 C28.6191917,26.4991151 28.1646159,24.938799 28.0727487,23.3256744 C27.9958755,21.9812866 27.9268561,20.6190612 28.1598559,19.2824186 C28.3383543,18.2598107 28.8276777,17.3369523 29.340087,16.4356867 C29.5288192,16.1035797 29.6659059,15.7332159 30.0547943,15.5531975 C30.2273427,15.4731632 30.4017951,15.4020477 30.5798174,15.3356263 C31.2097976,15.1011564 31.8259738,14.8408691 32.2988754,14.3343766 C32.1686906,16.5211192 32.3786047,19.6455066 33.1049739,20.8739504 C33.1423396,20.6789108 33.0771282,20.5326899 33.0426185,20.3944489 C32.7444073,19.2061396 32.6099385,18.0002274 32.5509151,16.7783554 C32.5090275,15.9148772 32.450718,15.0544502 32.562815,14.1947273 C32.6503982,13.5258193 32.9060078,12.9066686 33.2444406,12.3274177 C33.4526887,11.9709014 33.8663288,11.9119906 34.2340354,12.1192347 C34.5879381,12.3182642 34.9392229,12.5316107 35.3664289,12.5494482 C35.5432612,12.5567241 35.7029578,12.517059 35.8581323,12.4332695 C36.5526099,12.0572727 37.2316175,12.1450522 37.8868254,12.5280901 C38.2754758,12.7552841 38.6591283,12.979427 39.1341718,12.9430478 C39.9000487,12.8846064 40.4964712,13.2807877 41.0279202,13.72391 C41.7228738,14.3026915 42.3473799,14.9636196 43.0018739,15.5898114 C43.201554,15.7808609 43.4376478,15.9235613 43.6661257,16.0751805 C44.06263,16.3380496 44.3924949,16.6675748 44.5736112,17.1013089 C45.1702717,18.5323027 45.7152866,19.9769094 45.8123897,21.548726 C45.8421394,22.0317481 45.9451925,22.5121883 45.9775602,22.9982615 C46.0361076,23.8795772 45.9754182,24.752913 45.8497554,25.6274223 C45.7309945,26.4533477 45.5965257,27.2818549 45.3728078,28.0786769 C45.1993074,28.6957153 45.024617,29.3202642 44.8368368,29.9358943 C44.5824171,30.7705038 44.1264134,31.5229667 43.9388711,32.3866795 C43.7991664,33.029066 43.5437948,33.6573701 43.2324937,34.2502339 C43.093265,34.5152154 42.7912458,34.6757533 42.7186565,34.9832163 C42.6151275,35.4200016 42.2588448,35.6101123 41.9265999,35.8452863 C41.0300622,36.4796927 40.195404,37.1906129 39.3888295,37.9322794 C39.1279839,38.1723822 38.9454396,38.470457 38.8897481,38.8297897 C38.8788002,38.8999664 38.8866541,38.9990117 38.7786031,38.99244 C38.6715041,38.9856336 38.6189066,38.9187428 38.6146227,38.8030334 C38.6022468,38.4751511 38.575115,38.1477382 38.5610732,37.8198559 C38.5294195,37.0798324 38.582493,36.3372271 38.476346,35.5450991 C38.3295013,35.8297958 38.3816228,36.1006448 38.3430672,36.3513093 C38.3018936,36.6179337 38.3206954,36.8944157 38.3214094,37.1664384 C38.3218854,37.4386957 38.3135555,37.7128306 38.3440192,37.9822715 C38.3747209,38.2512429 38.3552051,38.5242044 38.4439783,38.7995128 C38.2459641,38.7995128 38.1602849,38.7091516 38.0969775,38.5561242 C37.7680645,37.7651697 37.616698,36.9406525 37.5938502,36.0896137 C37.5569605,34.710959 37.5176909,33.332539 37.4843712,31.9538843 C37.4748513,31.566387 37.4829432,31.178655 37.4686633,30.788576 C37.3399065,31.1279589 37.3058728,31.487761 37.2982569,31.8438078 C37.2735051,33.0349336 37.2956389,34.2241817 37.3853641,35.4146034 C37.4434356,36.1802097 37.4367716,36.947459 37.6238379,37.7013301 C37.7035671,38.0226407 37.82804,38.3240014 37.9553688,38.6471896" id="Fill-8" fill="#FEFEFE"></path>
                        <path d="M34.4676197,37.769303 C34.0843936,37.6958267 33.759555,37.5776362 33.4416673,37.472739 C32.3028787,37.0971397 31.1332744,36.9794325 29.9530122,36.8605169 C29.0005076,36.7643209 28.0989763,36.970248 27.1740436,37.0971397 C25.627469,37.3093509 24.1334896,37.7543177 22.6179624,38.1045388 C22.4045699,38.1536035 22.1900188,38.2123363 21.9763946,38.3464789 C22.0605005,38.408112 22.124217,38.3742742 22.1895554,38.3602557 C23.5113843,38.0733597 24.8278842,37.7521424 26.1578225,37.515278 C26.9687604,37.370984 27.7766863,37.2042121 28.5913315,37.0826378 C29.2030104,36.9915174 29.8116773,37.0942393 30.4198807,37.1428207 C30.7611698,37.1701326 31.1029222,37.1539388 31.4446746,37.2075959 C32.4625176,37.3676002 33.444216,37.6752823 34.4298531,37.9682208 C34.6654885,38.0383134 34.8756373,38.1714892 35.0653968,38.3186836 C35.5864824,38.7240119 36.1893568,38.9451659 36.7790246,39.1989493 C36.909238,39.2547816 37.0568288,39.2709754 36.9778202,39.4899542 C36.9027505,39.6990234 36.7850487,39.6424659 36.6495062,39.5808328 C35.0841642,38.8685475 33.4444477,38.7025007 31.7588552,38.8414773 C30.4981942,38.9454076 29.2845676,39.2808851 28.0315526,39.5912258 C28.2240924,39.6666358 28.2977719,39.6705029 28.7410074,39.5931594 C29.7894344,39.4104354 30.8346176,39.1871061 31.8960195,39.1167718 C33.1951422,39.0307272 34.4875456,39.1124212 35.7405606,39.5242754 C36.0482536,39.625547 36.3703118,39.6847631 36.6613227,39.8430756 C36.7285147,39.8795721 36.8188764,39.896491 36.7852804,39.9960707 C36.7431116,40.1219956 36.6566888,40.0221742 36.601545,40.005497 C35.6587717,39.7183592 34.6923653,39.780234 33.7324465,39.8140718 C33.1506564,39.8346162 32.5679396,39.8239814 31.9856861,39.8873064 C30.654126,40.0318421 29.349906,40.2817583 28.1142682,40.8410485 C28.0157972,40.8857627 27.9052779,40.9193588 27.8248792,41.0317485 C27.9110704,41.0827469 27.983128,41.0428667 28.0570392,41.022564 C28.9328522,40.7820741 29.7987022,40.5060544 30.6979166,40.3545095 C31.8436561,40.1613925 32.9931028,40.0726891 34.1515856,40.0736559 C34.9562677,40.0741393 35.7625718,40.0323255 36.5616932,40.1717855 C36.6200807,40.1819368 36.7289781,40.1060435 36.7361607,40.2392194 C36.7414897,40.3416995 36.6418602,40.3385574 36.5786071,40.3719118 C36.1793939,40.5814643 35.7461213,40.6232782 35.3109952,40.6459978 C34.885832,40.6684758 34.4604371,40.6795939 34.0484806,40.8110779 C33.8981095,40.8594176 33.7611769,40.9292684 33.6606205,41.0902396 C34.6569158,40.7948841 35.7442677,41.1356789 36.6949187,40.5606783 C36.7639643,40.8770615 36.7456603,40.9215341 36.4743436,40.9333773 C35.6193833,40.9708405 34.8339319,41.2879489 34.0505659,41.5961144 C33.142547,41.953103 32.2739166,42.4111215 31.3939331,42.8345772 C30.7852662,43.127274 30.1858672,43.4634765 29.6221495,43.8569616 C29.2539836,44.113887 28.8556972,44.3248898 28.4701542,44.5516029 C27.2148222,45.290475 26.027609,46.1197424 24.9801088,47.1575954 C24.4490603,47.6837729 23.7623117,47.8867996 23.1015131,48.143 C22.5725499,48.3479603 22.0225022,48.4794442 21.4828809,48.6466995 C21.1545669,48.7484546 20.8158265,48.7399951 20.4949268,48.7455542 C19.4379271,48.7634399 18.4010849,49.0450186 17.3447803,48.9937785 C16.6014977,48.9580071 15.8429232,48.9729924 15.1584916,48.5688726 C14.8920405,48.4115269 14.5741528,48.513282 14.2849955,48.4369053 C14.0222516,48.3675378 13.7694707,48.2901943 13.5482005,48.1188301 C13.1730837,47.8285503 12.7089955,47.7722346 12.2875395,47.6040125 C11.8222928,47.4179047 11.4914301,47.0215192 11.0940705,46.7288224 C11.0064892,46.6642889 11.0759981,46.5905709 11.1221057,46.5315965 C11.3030608,46.299566 11.4946738,46.0759949 11.6661293,45.8362301 C11.8853142,45.5302399 11.9057035,45.1548822 11.7381869,44.8863552 C11.5451837,44.5767395 11.3195112,44.5131728 11.0020869,44.6799448 C10.6654318,44.8571097 10.3730308,45.1193525 9.98517071,45.1988713 C9.51691196,45.2948256 9.35518776,45.1998381 9.26436271,44.724659 C9.18929302,44.3311739 9.23401046,43.9343051 9.23238858,43.5398532 C9.2314618,43.2244368 9.19647562,42.922072 9.06046973,42.6400099 C8.961767,42.4355331 8.9886438,42.2566762 9.10657735,42.0693599 C9.36028509,41.6654818 9.57877494,41.255803 9.63785757,40.75162 C9.67933125,40.3992237 10.0145962,40.2097322 10.2727061,40.0151649 C11.0215494,39.450074 11.5625609,38.7259454 11.9179834,37.8393956 C12.2567238,36.9941761 12.8243804,36.3360313 13.5444933,35.8325734 C13.8728073,35.6032016 14.2829102,35.5355261 14.6492225,35.3721379 C15.7722558,34.8708554 16.923556,34.4437742 18.1100741,34.1397176 C19.9064175,33.6795238 21.726394,33.3425961 23.5630527,33.1156413 C24.601285,32.9875411 25.6399806,32.950803 26.6891027,33.083012 C27.2354432,33.1518961 27.7912832,33.2050697 28.3443429,33.2285145 C28.8302106,33.2493005 29.3042618,33.3295444 29.7572286,33.4984916 C30.3225682,33.7092527 30.8886029,33.9248477 31.4203465,34.2214117 C31.5086229,34.2707181 31.5846193,34.3441945 31.6645547,34.4087279 C32.5387458,35.1118287 33.1583024,36.0474433 33.8112233,36.9540542 C34.0044582,37.2223395 34.2248017,37.4693553 34.4676197,37.769303" id="Fill-10" fill="#FEFEFE"></path>
                        <path d="M17.7018781,59.201608 C17.6631352,58.850393 17.5297141,58.5222387 17.4207495,58.1887805 C17.0008727,56.9047587 17.3108164,55.7445731 18.0389419,54.6376578 C18.6355835,53.7304484 19.2678201,52.8490671 19.9756056,52.0179582 C20.9325567,50.8937473 21.9306722,49.8038969 22.9532442,48.7329563 C23.9082581,47.732351 24.9903974,46.8657286 26.0807696,46.015018 C27.1660568,45.1682278 28.4009886,44.5222966 29.6247819,43.8655268 C30.6190231,43.332132 31.6018835,42.7851314 32.6581135,42.365426 C33.4591242,42.0471878 34.2150962,41.6191806 35.0529127,41.3943384 C35.6432585,41.2361417 36.2290037,41.0362052 36.8527653,41.005765 C37.1799012,40.9898531 37.1794169,40.9836267 37.4949299,41.3161625 C37.2801486,41.3897262 37.0716631,41.4542963 36.8685047,41.5322416 C36.3367575,41.7360985 35.9149436,42.0912338 35.5035418,42.4558241 C34.4523968,43.3870166 33.5186915,44.4229048 32.579659,45.4534891 C32.5128274,45.5268222 32.464883,45.6158367 32.3692363,45.7539705 C32.5937033,45.6783313 32.7043629,45.5637194 32.8133275,45.4571788 C33.5235344,44.7646649 34.2267191,44.0650022 34.9371681,43.3724883 C35.3565606,42.9633909 35.7863654,42.5651319 36.2541866,42.204462 C36.6292669,41.915511 37.0619773,41.7416331 37.5038892,41.5716754 C37.8828438,41.4259316 38.2252347,41.6134154 38.5845756,41.6281742 C38.7383368,41.6344006 38.6153279,41.7598511 38.5816699,41.8115071 C38.3211235,42.2125333 38.0952036,42.6290102 37.932241,43.0752354 C37.9014888,43.1598683 37.8399844,43.2403503 37.8874445,43.3570376 C38.0697786,43.2534949 38.1131222,43.0648581 38.202231,42.9145021 C38.4112009,42.5616728 38.6015257,42.1984662 38.8005676,41.840333 C38.8385842,41.7718426 38.8552921,41.6408577 38.9615931,41.6839812 C39.0940456,41.7374821 38.9528759,41.8170417 38.9349573,41.8825342 C38.9005729,42.0063703 38.8439113,42.1244413 38.8058948,42.2475856 C38.7981462,42.2736442 38.8218763,42.3248391 38.8473013,42.340751 C38.9017836,42.3751115 38.9332623,42.3287594 38.9572345,42.2886337 C38.976606,42.2568099 39.0013046,42.2238331 39.0061475,42.1890113 C39.0712841,41.7520104 39.4328043,41.5961198 39.7892395,41.4349253 C39.8567976,41.4044851 39.9657622,41.3489087 39.9492964,41.4792019 C39.8824648,42.0031418 40.0674624,42.5213165 39.9720579,43.0450259 C39.9066791,43.4038509 39.7504966,43.7331582 39.5945562,44.0567003 C38.9979146,45.2955231 38.4676203,46.5613269 37.8564501,47.7950762 C37.1341361,49.2536678 36.3968091,50.704188 35.5977356,52.1256518 C34.8824437,53.398835 33.9547919,54.5343457 33.013338,55.6597096 C32.4944245,56.2800434 32.1132906,56.9907752 31.5907449,57.6115702 C31.0708629,58.229598 30.5575186,58.8533909 30.0698416,59.4965548 C29.8029995,59.8489228 29.4138749,60.1072031 29.0172438,60.31106 C28.5658884,60.5428204 28.1263979,60.7930294 27.6825489,61.0367813 C27.5653514,61.1011208 27.4341096,61.1578502 27.3447587,61.2496319 C26.923429,61.6808677 26.385144,61.9642841 25.8911713,62.3005097 C25.1809644,62.7840933 24.3809223,63.0677403 23.5031521,63.1258534 C23.3842596,63.1334634 23.268515,63.1482223 23.1706891,63.2107169 C22.4035784,63.7012187 21.5563183,63.5628543 20.7257661,63.4747623 C20.1547918,63.4143432 19.6317618,63.4297939 19.2140643,63.8667948 C19.1498962,63.9339016 19.0745896,64.0259139 18.9738579,63.9931677 C18.8738527,63.960652 18.8808748,63.8407362 18.8682834,63.754489 C18.8029046,63.3031904 18.6924872,62.8721853 18.4045786,62.4919138 C18.2997304,62.3535493 18.3304826,62.1713695 18.3803642,62.0087913 C18.464388,61.7339074 18.584249,61.4740129 18.7217865,61.2182693 C19.4511228,59.8641429 20.2221077,58.5333079 21.095035,57.2571267 C21.1282086,57.2084686 21.1885024,57.1598104 21.1451587,57.0599574 C20.8156014,57.4012563 20.5637721,57.7799136 20.3005622,58.1486548 C19.5102058,59.2567231 18.8677991,60.4448122 18.2442796,61.6423563 C18.2186124,61.6917062 18.1801115,61.7463602 18.1837437,61.796402 C18.2302352,62.4421026 17.6270558,62.6664835 17.283212,63.0566712 C17.1294509,63.2314716 17.0986987,63.0485999 17.0684307,62.9582018 C16.9420318,62.5832343 17.0124956,62.2036546 17.1049944,61.8399868 C17.2507648,61.2680805 17.4439953,60.7070128 17.6161593,60.1411024 C17.6483644,60.0354842 17.6754845,59.9280212 17.7047838,59.8214806 C17.7038153,59.1928449 18.0713891,58.6949636 18.3624456,58.1733298 C18.5685097,57.8038968 18.8116218,57.4533736 19.0363309,57.0931649 C18.9087213,57.3106276 18.7660988,57.5195579 18.6283192,57.7307942 C18.3484013,58.1604158 18.101657,58.606641 17.8757372,59.0637048 C17.8406263,59.1349624 17.8268242,59.2322788 17.7018781,59.201608" id="Fill-12" fill="#FEFEFE"></path>
                        <path d="M54.0506808,33.0460501 C54.5169263,32.9423397 54.9646425,32.7982974 55.4023992,32.6330522 C57.054062,32.0100983 58.7865593,31.6962015 60.4989058,31.308555 C60.9630669,31.2036923 61.4552536,31.1944736 61.9347014,31.191708 C62.3946933,31.1891728 62.8491264,31.0838492 63.3172249,31.1702745 C63.6683567,31.2350359 63.9875253,31.3758516 64.3238336,31.4742612 C64.3652931,31.4862455 64.4287562,31.5049134 64.4171754,31.5586124 C64.3546387,31.8460054 64.55962,32.0442075 64.6559728,32.2767493 C64.7736344,32.5606854 64.7337962,32.8390902 64.648561,33.1138076 C64.3518593,34.0688652 63.9400438,34.9782902 63.4063976,35.8204188 C63.0971885,36.3080882 62.6719392,36.7243126 62.2337193,37.1066583 C61.6778378,37.5917925 61.0837395,38.0335989 60.5165088,38.5065184 C59.9319067,38.9941877 59.2655438,39.3101588 58.5357178,39.5159663 C57.9402297,39.6837467 57.3845799,39.9575422 56.812022,40.1868574 C56.2656368,40.4060321 55.6810348,40.5493829 55.0885578,40.5687422 C53.9624346,40.605617 52.847429,40.7139368 51.7335815,40.8877093 C50.7992374,41.0338258 49.8452058,41.0269118 48.9099352,40.9268888 C48.4816749,40.8812562 48.0267785,40.7706318 47.6191321,40.5461564 C47.3666693,40.406954 47.0657984,40.3440363 46.7788246,40.278814 C45.9570465,40.0925962 45.1676948,39.7975977 44.3586557,39.5726614 C43.3513521,39.2926432 42.3178758,39.2580731 41.2839363,39.4558143 C41.1331534,39.4846227 40.9914037,39.4809353 40.8533598,39.40442 C40.6951652,39.3168423 40.5172831,39.2737449 40.3433385,39.3062408 C39.9616332,39.3774553 39.5660309,39.3154595 39.1905793,39.4350722 C39.1275794,39.4551229 39.0402597,39.5122788 39.0076017,39.4037286 C38.9786495,39.3078541 39.0349325,39.2541552 39.1333698,39.2288037 C40.350287,38.9172116 41.5248183,38.4392218 42.7815736,38.2864218 C43.2489773,38.2294963 43.7226346,38.2202776 44.1937442,38.1946957 C44.3500858,38.1863989 44.5057326,38.1836333 44.665317,38.1209461 C42.9064153,37.7973696 41.2825466,38.3092381 39.6589094,38.8436924 C41.3675501,37.6964248 43.1598046,36.7409063 45.2536248,36.3945135 C45.0588347,36.3062444 45.0562869,36.3099319 44.8506108,36.3408145 C42.9425476,36.6272857 41.288337,37.4864689 39.7506299,38.5973226 C39.5407846,38.7489702 39.2992078,38.7869974 39.0191825,38.9414107 C39.1102081,38.4756357 39.271877,38.1055048 39.5359207,37.7913775 C39.8448981,37.4240122 40.2900665,37.2313413 40.6896063,36.984741 C41.7200716,36.3488809 42.7421987,35.6948139 43.9252997,35.3569485 C44.0251268,35.328601 44.1518214,35.3451946 44.2245493,35.2354921 C43.2397126,35.1416918 39.8935377,36.9043078 39.1166934,37.9351892 C39.0905206,37.5768122 39.2118881,37.2961026 39.4418841,37.0529594 C39.862501,36.6081569 40.361173,36.2534673 40.8274186,35.861442 C42.1066409,34.7851584 43.508157,33.8672061 44.8072983,32.8155825 C45.5614442,32.2050739 46.2952078,31.5726709 47.0356882,30.9474124 C48.1224365,30.02946 49.2615303,29.17673 50.4909548,28.4500657 C50.772833,28.2832072 51.0755568,28.1691257 51.3782806,28.0605755 C52.2822828,27.7360772 53.1684505,27.3539619 54.113449,27.1555293 C54.9780764,26.9743818 55.8538213,26.9923583 56.7332721,27.0117176 C57.335477,27.0250847 57.9293437,27.1062093 58.5269163,27.1499981 C58.8516437,27.1737363 59.1687278,27.3078684 59.4872016,27.3995945 C59.6375212,27.4431529 59.7820504,27.5484766 59.9302854,27.5503203 C60.7414091,27.5599999 61.4723933,27.9033966 62.2320979,28.1062081 C62.843336,28.2696096 63.3677175,28.6558733 63.8045477,29.144695 C64.1605434,29.542943 64.5385428,29.9262105 64.8329284,30.3691692 C65.0802956,30.7418353 65.0705677,31.1416965 64.6846933,31.2997973 C64.6013111,31.3339065 64.535995,31.3576446 64.4528444,31.3080941 C63.6039671,30.8017568 62.6751818,30.9156078 61.7517237,30.9554787 C60.1398991,31.0248495 58.5984861,31.461816 57.0515142,31.8517671 C56.0564864,32.1025158 55.1117195,32.5212754 54.169732,32.9303554 C54.1247983,32.9497146 54.0585557,32.9547849 54.0506808,33.0460501" id="Fill-14" fill="#FEFEFE"></path>
                        <path d="M40.0679653,40.5734838 C40.756031,41.6066196 41.3976841,42.5857246 42.0555817,43.5538362 C42.7164961,44.5259241 43.0968467,45.6488775 43.7027622,46.6495012 C43.1734274,44.4506084 41.7613263,42.7326137 40.611456,40.8679638 C41.1122471,41.1112197 41.4468814,41.53107 41.7889417,41.9436694 C42.5447697,42.8554111 43.2762311,43.7851632 43.8916612,44.801926 C43.9487486,44.8959538 44.0239369,44.9785204 44.1012137,45.0805008 C44.094716,44.633752 43.5331244,43.7603698 42.434772,42.3819978 C41.7636469,41.5394904 41.0846317,40.7163967 40.0419743,40.2525732 C40.4427464,40.05446 42.38279,40.9928663 43.2799441,41.7736242 C44.191022,42.5663109 45.0069542,43.4471779 45.6281858,44.5041714 C45.6639235,44.4669814 45.6996611,44.4300252 45.7351667,44.3928351 C44.5813513,42.3214177 42.9357952,40.8246923 40.6481219,40.0907145 C41.4071987,39.8455874 42.0771635,40.1400674 42.7315801,40.4651882 C43.1079857,40.6523081 43.4816065,40.8317093 43.8958383,40.9126387 C44.5449175,41.0389446 45.0995472,41.3841809 45.6759907,41.6824032 C46.5582928,42.138508 47.4693707,42.5410497 48.3409979,43.0118902 C49.123049,43.4343134 49.91972,43.8384924 50.6590715,44.34395 C51.9500359,45.2266882 53.1776472,46.1884845 54.3432978,47.2326136 C54.8176338,47.6578436 55.1975203,48.1658742 55.5959718,48.6589351 C56.4320935,49.6925387 57.1737656,50.7869563 57.6583124,52.0345783 C57.894088,52.6417824 58.0616372,53.2651256 57.9783268,53.9448387 C57.9045308,54.5450258 58.0479455,55.1545689 57.9727573,55.7629425 C57.8971048,56.3736551 57.8311991,56.9857711 57.7098303,57.5892328 C57.6283763,57.9950491 57.3004718,58.1716435 56.9558588,58.2839155 C56.4694556,58.4424996 56.1383022,58.7423592 55.9600781,59.2225557 C55.8918517,59.4068688 55.8087733,59.5836971 55.8751432,59.7906985 C55.9080961,59.8936145 55.852169,59.9923202 55.8157351,60.0877514 C55.7660737,60.2196709 55.7280155,60.3515905 55.7231422,60.4949711 C55.7089863,60.9026586 55.4474518,61.0822937 55.0529453,60.9644082 C54.9267032,60.9265164 54.8057986,60.8741228 54.7076361,60.7880476 C54.4075791,60.525612 54.0606455,60.4538047 53.6728688,60.4767269 C52.9919971,60.5169577 52.3199437,60.4867846 51.6987121,60.1459925 C51.39471,59.9789879 51.1429221,59.7415795 50.8625904,59.5425307 C49.4801934,58.5622563 48.3878746,57.3022376 47.3865244,55.9435132 C46.688712,54.9969203 46.1426687,53.9469438 45.4040133,53.0312257 C44.4312068,51.8252379 43.5396222,50.5628802 42.7475924,49.229183 C42.4848976,48.7868784 42.2878764,48.3125294 42.0695055,47.8482381 C41.7515797,47.1727352 41.4496662,46.4855374 41.074885,45.8425466 C40.4842856,44.8295262 40.3074539,43.7093796 40.1406009,42.58245 C40.0470797,41.9495169 39.9194452,41.3142448 40.0679653,40.5734838" id="Fill-16" fill="#FEFEFE"></path>
                        <path d="M18,59.3461975 C18.0607725,59.3155505 18.0671245,59.2345549 18.0894421,59.1642614 C18.3342489,58.3944381 18.6353648,57.6713151 19,57 C18.6839485,58.0118372 18.1503863,58.8779796 18.0020601,60 C18.0013734,59.7823091 18.0006867,59.5641317 18,59.3461975" id="Fill-18" fill="#BFD3B3"></path>
                        <path d="M33.2977916,17 C32.9523252,16.3122725 32.9675193,15.6169849 33.0474884,14.9233512 C33.107865,14.3979283 33.2498102,13.8765217 33.5137081,13.3702352 C33.5600902,13.2802234 33.6204669,13.1928105 33.6792441,13.1051612 C33.7144305,13.0524772 33.7628118,12.9896344 33.873569,13.0014469 C34.0203123,13.0168033 33.9991205,13.0973649 33.9987207,13.1618615 C33.9987207,13.1994255 33.9931228,13.2381707 33.9763293,13.2740809 C33.4205442,14.4574636 33.3741621,15.673449 33.3145851,16.8884894 C33.3125859,16.9258171 33.3033894,16.9629085 33.2977916,17" id="Fill-20" fill="#99B985"></path>
                        <path d="M34.2433723,15 C33.8817582,14.4594501 34.0011904,13.9610077 34.1081817,13.4630727 C34.1272577,13.373277 34.1985853,13.2844959 34.2408842,13.1952075 C34.2782067,13.1158119 34.2798655,13.0064843 34.5801047,13.0003965 C34.9807002,12.9920257 35.0138758,13.1180948 34.9964586,13.2002807 C34.8695619,13.7715235 34.7119778,14.342259 34.5577112,14.9127409 C34.5543936,14.9266922 34.4681371,14.9388679 34.2433723,15" id="Fill-22" fill="#9DBC8A"></path>
                        <path d="M19,41 C17.3368142,41.6802111 15.5768427,42.0891821 14,43 C15.4680862,41.7931398 17.2919872,41.5498681 19,41" id="Fill-24" fill="#A1BF8F"></path>
                        <path d="M13,43 C12.7078465,43.3023472 12.3926129,43.5893688 12.2231639,43.9295567 C12.2032975,43.9692894 12.1647332,44.0205636 12.0741656,43.9914262 C12.002588,43.968911 11.9909019,43.9208533 12.0055096,43.8743093 C12.0467032,43.7397856 12.1384394,43.6177494 12.2471205,43.5023352 C12.4387732,43.2995091 12.6578883,43.1118193 13,43" id="Fill-26" fill="#A4C092"></path>
                        <path d="M37,41.0388127 C36.716517,41.2460242 36.4225258,41.4221421 36.1746274,41.648342 C34.9231945,42.7914469 33.8826423,44.1120937 32.9493217,45.5177139 C32.6252388,46.0059545 32.3274264,46.5112847 32,47 C32.0640046,46.570861 32.2784677,46.2034344 32.4934085,45.8402803 C33.4131162,44.2863128 34.5085976,42.8683501 35.8357375,41.6331513 C36.0740829,41.4112237 36.3489683,41.2391409 36.6326901,41.0817741 C36.7377723,41.0236219 36.8478697,40.9555009 37,41.0388127" id="Fill-28" fill="#9ABA86"></path>
                        <path d="M36,45 C36.3980941,43.799725 36.9403627,42.7183776 38,42 C37.3154012,43.0270394 36.6578543,44.0135197 36,45" id="Fill-30" fill="#A0BE8E"></path>
                        <path d="M49,49 C50.5512579,50.2199292 54.3285069,57.1802365 53.9770453,58 C53.9342533,57.9986443 53.9279664,57.9595541 53.921071,57.9270166 C53.6839916,56.8313625 53.1976644,55.8681178 52.6805109,54.9118777 C51.7970909,53.2786774 50.8883203,51.666265 49.8345439,50.1605031 C49.5615679,49.7700535 49.2283588,49.433607 49,49" id="Fill-32" fill="#9CBB8A"></path>
                        <path d="M52,52 C52.8021474,52.9084962 53.6155558,53.8138934 54,55 C53.4311903,53.9365585 52.6389944,53.021348 52,52" id="Fill-34" fill="#A6C295"></path>
                        <path d="M53.0945757,58 C53.4055581,58.5750142 53.7173582,59.1497781 53.968379,59.7505654 C54.0013579,59.8298863 54.0348818,59.9462403 53.9220451,59.9885281 C53.7830433,60.0400742 53.7740491,59.9054539 53.7413428,59.8318881 C53.5412892,59.3809849 53.2807291,58.952852 53.1291899,58.4834323 C53.0806755,58.3335483 53.0430633,58.1809118 53,58.0292762 C53.0316161,58.0195175 53.0632322,58.0097587 53.0945757,58" id="Fill-36" fill="#9EBC8B"></path>
                        <path d="M55,59 C54.6002443,58.7116502 53.956991,56.7471814 54.0022672,56 C54.3470841,56.9938504 54.6515941,58.0078579 55,59" id="Fill-38" fill="#A3C092"></path>
                    </g>
                </g>
            </g>
        </g>
    </g>
</svg>