<?xml version="1.0" encoding="UTF-8"?>
<svg width="99px" height="252px" viewBox="0 0 99 252" version="1.1" xmlns="http://www.w3.org/2000/svg" xmlns:xlink="http://www.w3.org/1999/xlink">
    <!-- Generator: Sketch 53.2 (72643) - https://sketchapp.com -->
    <title>trebledesign</title>
    <desc>Created with Sketch.</desc>
    <defs>
        <polygon id="path-1" points="0.101741742 0.180314634 76.8705105 0.180314634 76.8705105 75.9486073 0.101741742 75.9486073"></polygon>
    </defs>
    <g id="Page-2" stroke="none" stroke-width="1" fill="none" fill-rule="evenodd">
        <g id="Home" transform="translate(-154.000000, -1016.000000)">
            <g id="BulletSection" transform="translate(114.562362, 961.000000)">
                <g id="trebledesign" transform="translate(0.000000, 43.000000)">
                    <path d="M125.217321,227.080467 C154.846801,263.442327 168.643213,239.317195 151.553464,206.245031 C138.402606,180.771003 124.43659,174.335489 106.107255,168.054106 L98.6590661,142.194654 C107.284396,139.289216 113.978917,133.194786 117.4352,122.764662 C121.336735,110.585472 114.975247,95.6746038 109.494945,89.5587817 C102.40975,81.5523622 91.5182266,77.3178182 80.3865841,78.2416655 L76.7784863,65.5438199 C75.3315469,60.1173559 72.455312,55.112971 68.4079723,50.979893 C65.5439431,48.0770402 61.9062542,45.9266951 57.8598944,44.7446137 C53.8795462,43.6410369 49.6328875,43.6608895 45.6584532,44.8016538 C26.1667751,50.4957112 28.3362691,68.9623385 39.2745496,73.501492 C43.2384955,75.0182536 47.7532367,74.6543441 51.3865026,72.5252111 C55.0197686,70.3960781 57.3206091,66.7659836 57.5590983,62.7865497 C57.908302,60.0086295 57.3727182,57.1987054 56.0186675,54.7047263 C54.6967073,52.2170894 52.6045697,50.154217 50.0099443,48.7800541 C52.1879932,48.5409609 54.3946808,48.7327357 56.4848189,49.3427608 C59.766099,50.2583782 62.7045301,52.0073091 64.9691356,54.3925586 C68.4671522,58.0156594 70.9803022,62.3646619 72.2993096,67.077414 L75.6388191,78.8183378 C60.7926906,81.2865821 49.8423324,93.6927678 47.2880692,98.0775925 C34.6223189,119.636021 39.7747165,148.654282 58.7172424,164.411115 C69.7046408,173.367619 86.1701477,178.693936 99.348086,183.271965 C103.883044,184.9341 105.632691,185.761212 106.223872,185.958809 C110.785338,201.966664 114.038643,213.579146 125.107674,227.212328 L125.217321,227.080467 Z M100.600086,166.311287 C93.9148034,164.076344 86.7292119,161.617555 78.7554409,158.242207 C64.2207069,151.854482 52.3358626,144.025027 47.1511662,128.222611 C40.6301815,108.541356 58.5250037,86.2373399 76.9406449,82.7114683 L90.1061715,129.152567 C82.3025798,130.68835 74.3050556,127.573467 69.9753444,121.311994 C67.1282077,116.193263 65.4340293,110.770143 68.3959379,105.084857 C69.307653,102.891731 70.5232514,100.819978 72.0113973,98.9230037 L70.8883255,97.7797107 C70.8883255,97.7797107 59.9701081,104.249929 62.0272147,120.98557 C64.0843213,137.721212 83.6962884,145.855106 94.1931109,143.682038 L100.597831,166.182115 L100.600086,166.311287 Z M80.7695291,82.2444213 C88.5626444,82.2179864 95.8217192,85.7608868 100.038422,91.6488935 C110.681671,105.000749 106.65942,121.122349 95.0520873,127.504611 C94.781695,127.660082 94.5224412,127.830778 94.2758818,128.015674 L80.7695291,82.2444213 Z M112.018202,187.851817 C123.973709,190.048338 139.198089,198.514534 145.924178,209.142121 C152.650268,219.769708 150.024081,231.266415 138.789596,225.920085 C123.950027,218.858922 116.353739,202.834814 112.100864,187.82423 L112.018202,187.851817 Z" id="Shape" fill="#A483B8" transform="translate(95.000812, 144.587233) scale(-1, 1) rotate(-160.000000) translate(-95.000812, -144.587233) "></path>
                    <g id="Jasmine" transform="translate(73.437638, 0.000000)">
                        <g id="Group-3">
                            <mask id="mask-2" fill="white">
                                <use xlink:href="#path-1"></use>
                            </mask>
                            <g id="Clip-2"></g>
                        </g>
                        <path d="M37.9553688,38.6471896 C37.722607,38.7206521 37.6036081,38.6002486 37.503173,38.4563747 C37.1516503,37.9550458 37.0150395,37.3807236 36.9581581,36.7887987 C36.8082195,35.2273091 36.7941776,33.6601866 36.7753758,32.0932988 C36.7713298,31.7710494 36.7411041,31.4488 36.7213503,31.0983861 C36.5994954,31.2044726 36.6121093,31.312202 36.6106813,31.4117167 C36.5854535,33.15698 36.5618918,34.9029474 36.7261102,36.6437512 C36.7889417,37.3086693 36.9186504,37.9623216 37.3251507,38.5258473 C37.3608503,38.5756047 37.4346296,38.635689 37.3806041,38.6969469 C37.3275306,38.7575007 37.2408994,38.8161769 37.1533163,38.7816753 C36.9888598,38.7173662 36.8198814,38.6680783 36.7099264,38.4997951 C36.427185,38.0672345 36.324132,37.5816308 36.2727245,37.0868735 C36.1901392,36.2891126 36.1370657,35.4885353 36.0709023,34.6802127 C36.0090229,34.7449912 35.998789,34.8212702 35.998075,34.8926204 C35.9880791,35.8863596 35.9549974,36.8833846 36.212273,37.8567045 C36.325084,38.2838669 36.4738326,38.7011716 36.9019906,38.9391621 C36.8332092,39.0109817 36.7596679,39.0093387 36.6670868,38.9844601 C35.3459611,38.6284132 34.2426033,37.9785162 33.3831933,36.8852623 C32.2198602,35.4052152 31.2750089,33.8167346 30.5391198,32.0930641 C29.9738751,30.7693303 29.4512319,29.4317488 29.0592496,28.0502777 C28.6191917,26.4991151 28.1646159,24.938799 28.0727487,23.3256744 C27.9958755,21.9812866 27.9268561,20.6190612 28.1598559,19.2824186 C28.3383543,18.2598107 28.8276777,17.3369523 29.340087,16.4356867 C29.5288192,16.1035797 29.6659059,15.7332159 30.0547943,15.5531975 C30.2273427,15.4731632 30.4017951,15.4020477 30.5798174,15.3356263 C31.2097976,15.1011564 31.8259738,14.8408691 32.2988754,14.3343766 C32.1686906,16.5211192 32.3786047,19.6455066 33.1049739,20.8739504 C33.1423396,20.6789108 33.0771282,20.5326899 33.0426185,20.3944489 C32.7444073,19.2061396 32.6099385,18.0002274 32.5509151,16.7783554 C32.5090275,15.9148772 32.450718,15.0544502 32.562815,14.1947273 C32.6503982,13.5258193 32.9060078,12.9066686 33.2444406,12.3274177 C33.4526887,11.9709014 33.8663288,11.9119906 34.2340354,12.1192347 C34.5879381,12.3182642 34.9392229,12.5316107 35.3664289,12.5494482 C35.5432612,12.5567241 35.7029578,12.517059 35.8581323,12.4332695 C36.5526099,12.0572727 37.2316175,12.1450522 37.8868254,12.5280901 C38.2754758,12.7552841 38.6591283,12.979427 39.1341718,12.9430478 C39.9000487,12.8846064 40.4964712,13.2807877 41.0279202,13.72391 C41.7228738,14.3026915 42.3473799,14.9636196 43.0018739,15.5898114 C43.201554,15.7808609 43.4376478,15.9235613 43.6661257,16.0751805 C44.06263,16.3380496 44.3924949,16.6675748 44.5736112,17.1013089 C45.1702717,18.5323027 45.7152866,19.9769094 45.8123897,21.548726 C45.8421394,22.0317481 45.9451925,22.5121883 45.9775602,22.9982615 C46.0361076,23.8795772 45.9754182,24.752913 45.8497554,25.6274223 C45.7309945,26.4533477 45.5965257,27.2818549 45.3728078,28.0786769 C45.1993074,28.6957153 45.024617,29.3202642 44.8368368,29.9358943 C44.5824171,30.7705038 44.1264134,31.5229667 43.9388711,32.3866795 C43.7991664,33.029066 43.5437948,33.6573701 43.2324937,34.2502339 C43.093265,34.5152154 42.7912458,34.6757533 42.7186565,34.9832163 C42.6151275,35.4200016 42.2588448,35.6101123 41.9265999,35.8452863 C41.0300622,36.4796927 40.195404,37.1906129 39.3888295,37.9322794 C39.1279839,38.1723822 38.9454396,38.470457 38.8897481,38.8297897 C38.8788002,38.8999664 38.8866541,38.9990117 38.7786031,38.99244 C38.6715041,38.9856336 38.6189066,38.9187428 38.6146227,38.8030334 C38.6022468,38.4751511 38.575115,38.1477382 38.5610732,37.8198559 C38.5294195,37.0798324 38.582493,36.3372271 38.476346,35.5450991 C38.3295013,35.8297958 38.3816228,36.1006448 38.3430672,36.3513093 C38.3018936,36.6179337 38.3206954,36.8944157 38.3214094,37.1664384 C38.3218854,37.4386957 38.3135555,37.7128306 38.3440192,37.9822715 C38.3747209,38.2512429 38.3552051,38.5242044 38.4439783,38.7995128 C38.2459641,38.7995128 38.1602849,38.7091516 38.0969775,38.5561242 C37.7680645,37.7651697 37.616698,36.9406525 37.5938502,36.0896137 C37.5569605,34.710959 37.5176909,33.332539 37.4843712,31.9538843 C37.4748513,31.566387 37.4829432,31.178655 37.4686633,30.788576 C37.3399065,31.1279589 37.3058728,31.487761 37.2982569,31.8438078 C37.2735051,33.0349336 37.2956389,34.2241817 37.3853641,35.4146034 C37.4434356,36.1802097 37.4367716,36.947459 37.6238379,37.7013301 C37.7035671,38.0226407 37.82804,38.3240014 37.9553688,38.6471896" id="Fill-8" fill="#FEFEFE"></path>
                        <path d="M34.4676197,37.769303 C34.0843936,37.6958267 33.759555,37.5776362 33.4416673,37.472739 C32.3028787,37.0971397 31.1332744,36.9794325 29.9530122,36.8605169 C29.0005076,36.7643209 28.0989763,36.970248 27.1740436,37.0971397 C25.627469,37.3093509 24.1334896,37.7543177 22.6179624,38.1045388 C22.4045699,38.1536035 22.1900188,38.2123363 21.9763946,38.3464789 C22.0605005,38.408112 22.124217,38.3742742 22.1895554,38.3602557 C23.5113843,38.0733597 24.8278842,37.7521424 26.1578225,37.515278 C26.9687604,37.370984 27.7766863,37.2042121 28.5913315,37.0826378 C29.2030104,36.9915174 29.8116773,37.0942393 30.4198807,37.1428207 C30.7611698,37.1701326 31.1029222,37.1539388 31.4446746,37.2075959 C32.4625176,37.3676002 33.444216,37.6752823 34.4298531,37.9682208 C34.6654885,38.0383134 34.8756373,38.1714892 35.0653968,38.3186836 C35.5864824,38.7240119 36.1893568,38.9451659 36.7790246,39.1989493 C36.909238,39.2547816 37.0568288,39.2709754 36.9778202,39.4899542 C36.9027505,39.6990234 36.7850487,39.6424659 36.6495062,39.5808328 C35.0841642,38.8685475 33.4444477,38.7025007 31.7588552,38.8414773 C30.4981942,38.9454076 29.2845676,39.2808851 28.0315526,39.5912258 C28.2240924,39.6666358 28.2977719,39.6705029 28.7410074,39.5931594 C29.7894344,39.4104354 30.8346176,39.1871061 31.8960195,39.1167718 C33.1951422,39.0307272 34.4875456,39.1124212 35.7405606,39.5242754 C36.0482536,39.625547 36.3703118,39.6847631 36.6613227,39.8430756 C36.7285147,39.8795721 36.8188764,39.896491 36.7852804,39.9960707 C36.7431116,40.1219956 36.6566888,40.0221742 36.601545,40.005497 C35.6587717,39.7183592 34.6923653,39.780234 33.7324465,39.8140718 C33.1506564,39.8346162 32.5679396,39.8239814 31.9856861,39.8873064 C30.654126,40.0318421 29.349906,40.2817583 28.1142682,40.8410485 C28.0157972,40.8857627 27.9052779,40.9193588 27.8248792,41.0317485 C27.9110704,41.0827469 27.983128,41.0428667 28.0570392,41.022564 C28.9328522,40.7820741 29.7987022,40.5060544 30.6979166,40.3545095 C31.8436561,40.1613925 32.9931028,40.0726891 34.1515856,40.0736559 C34.9562677,40.0741393 35.7625718,40.0323255 36.5616932,40.1717855 C36.6200807,40.1819368 36.7289781,40.1060435 36.7361607,40.2392194 C36.7414897,40.3416995 36.6418602,40.3385574 36.5786071,40.3719118 C36.1793939,40.5814643 35.7461213,40.6232782 35.3109952,40.6459978 C34.885832,40.6684758 34.4604371,40.6795939 34.0484806,40.8110779 C33.8981095,40.8594176 33.7611769,40.9292684 33.6606205,41.0902396 C34.6569158,40.7948841 35.7442677,41.1356789 36.6949187,40.5606783 C36.7639643,40.8770615 36.7456603,40.9215341 36.4743436,40.9333773 C35.6193833,40.9708405 34.8339319,41.2879489 34.0505659,41.5961144 C33.142547,41.953103 32.2739166,42.4111215 31.3939331,42.8345772 C30.7852662,43.127274 30.1858672,43.4634765 29.6221495,43.8569616 C29.2539836,44.113887 28.8556972,44.3248898 28.4701542,44.5516029 C27.2148222,45.290475 26.027609,46.1197424 24.9801088,47.1575954 C24.4490603,47.6837729 23.7623117,47.8867996 23.1015131,48.143 C22.5725499,48.3479603 22.0225022,48.4794442 21.4828809,48.6466995 C21.1545669,48.7484546 20.8158265,48.7399951 20.4949268,48.7455542 C19.4379271,48.7634399 18.4010849,49.0450186 17.3447803,48.9937785 C16.6014977,48.9580071 15.8429232,48.9729924 15.1584916,48.5688726 C14.8920405,48.4115269 14.5741528,48.513282 14.2849955,48.4369053 C14.0222516,48.3675378 13.7694707,48.2901943 13.5482005,48.1188301 C13.1730837,47.8285503 12.7089955,47.7722346 12.2875395,47.6040125 C11.8222928,47.4179047 11.4914301,47.0215192 11.0940705,46.7288224 C11.0064892,46.6642889 11.0759981,46.5905709 11.1221057,46.5315965 C11.3030608,46.299566 11.4946738,46.0759949 11.6661293,45.8362301 C11.8853142,45.5302399 11.9057035,45.1548822 11.7381869,44.8863552 C11.5451837,44.5767395 11.3195112,44.5131728 11.0020869,44.6799448 C10.6654318,44.8571097 10.3730308,45.1193525 9.98517071,45.1988713 C9.51691196,45.2948256 9.35518776,45.1998381 9.26436271,44.724659 C9.18929302,44.3311739 9.23401046,43.9343051 9.23238858,43.5398532 C9.2314618,43.2244368 9.19647562,42.922072 9.06046973,42.6400099 C8.961767,42.4355331 8.9886438,42.2566762 9.10657735,42.0693599 C9.36028509,41.6654818 9.57877494,41.255803 9.63785757,40.75162 C9.67933125,40.3992237 10.0145962,40.2097322 10.2727061,40.0151649 C11.0215494,39.450074 11.5625609,38.7259454 11.9179834,37.8393956 C12.2567238,36.9941761 12.8243804,36.3360313 13.5444933,35.8325734 C13.8728073,35.6032016 14.2829102,35.5355261 14.6492225,35.3721379 C15.7722558,34.8708554 16.923556,34.4437742 18.1100741,34.1397176 C19.9064175,33.6795238 21.726394,33.3425961 23.5630527,33.1156413 C24.601285,32.9875411 25.6399806,32.950803 26.6891027,33.083012 C27.2354432,33.1518961 27.7912832,33.2050697 28.3443429,33.2285145 C28.8302106,33.2493005 29.3042618,33.3295444 29.7572286,33.4984916 C30.3225682,33.7092527 30.8886029,33.9248477 31.4203465,34.2214117 C31.5086229,34.2707181 31.5846193,34.3441945 31.6645547,34.4087279 C32.5387458,35.1118287 33.1583024,36.0474433 33.8112233,36.9540542 C34.0044582,37.2223395 34.2248017,37.4693553 34.4676197,37.769303" id="Fill-10" fill="#FEFEFE"></path>
                        <path d="M17.7018781,59.201608 C17.6631352,58.850393 17.5297141,58.5222387 17.4207495,58.1887805 C17.0008727,56.9047587 17.3108164,55.7445731 18.0389419,54.6376578 C18.6355835,53.7304484 19.2678201,52.8490671 19.9756056,52.0179582 C20.9325567,50.8937473 21.9306722,49.8038969 22.9532442,48.7329563 C23.9082581,47.732351 24.9903974,46.8657286 26.0807696,46.015018 C27.1660568,45.1682278 28.4009886,44.5222966 29.6247819,43.8655268 C30.6190231,43.332132 31.6018835,42.7851314 32.6581135,42.365426 C33.4591242,42.0471878 34.2150962,41.6191806 35.0529127,41.3943384 C35.6432585,41.2361417 36.2290037,41.0362052 36.8527653,41.005765 C37.1799012,40.9898531 37.1794169,40.9836267 37.4949299,41.3161625 C37.2801486,41.3897262 37.0716631,41.4542963 36.8685047,41.5322416 C36.3367575,41.7360985 35.9149436,42.0912338 35.5035418,42.4558241 C34.4523968,43.3870166 33.5186915,44.4229048 32.579659,45.4534891 C32.5128274,45.5268222 32.464883,45.6158367 32.3692363,45.7539705 C32.5937033,45.6783313 32.7043629,45.5637194 32.8133275,45.4571788 C33.5235344,44.7646649 34.2267191,44.0650022 34.9371681,43.3724883 C35.3565606,42.9633909 35.7863654,42.5651319 36.2541866,42.204462 C36.6292669,41.915511 37.0619773,41.7416331 37.5038892,41.5716754 C37.8828438,41.4259316 38.2252347,41.6134154 38.5845756,41.6281742 C38.7383368,41.6344006 38.6153279,41.7598511 38.5816699,41.8115071 C38.3211235,42.2125333 38.0952036,42.6290102 37.932241,43.0752354 C37.9014888,43.1598683 37.8399844,43.2403503 37.8874445,43.3570376 C38.0697786,43.2534949 38.1131222,43.0648581 38.202231,42.9145021 C38.4112009,42.5616728 38.6015257,42.1984662 38.8005676,41.840333 C38.8385842,41.7718426 38.8552921,41.6408577 38.9615931,41.6839812 C39.0940456,41.7374821 38.9528759,41.8170417 38.9349573,41.8825342 C38.9005729,42.0063703 38.8439113,42.1244413 38.8058948,42.2475856 C38.7981462,42.2736442 38.8218763,42.3248391 38.8473013,42.340751 C38.9017836,42.3751115 38.9332623,42.3287594 38.9572345,42.2886337 C38.976606,42.2568099 39.0013046,42.2238331 39.0061475,42.1890113 C39.0712841,41.7520104 39.4328043,41.5961198 39.7892395,41.4349253 C39.8567976,41.4044851 39.9657622,41.3489087 39.9492964,41.4792019 C39.8824648,42.0031418 40.0674624,42.5213165 39.9720579,43.0450259 C39.9066791,43.4038509 39.7504966,43.7331582 39.5945562,44.0567003 C38.9979146,45.2955231 38.4676203,46.5613269 37.8564501,47.7950762 C37.1341361,49.2536678 36.3968091,50.704188 35.5977356,52.1256518 C34.8824437,53.398835 33.9547919,54.5343457 33.013338,55.6597096 C32.4944245,56.2800434 32.1132906,56.9907752 31.5907449,57.6115702 C31.0708629,58.229598 30.5575186,58.8533909 30.0698416,59.4965548 C29.8029995,59.8489228 29.4138749,60.1072031 29.0172438,60.31106 C28.5658884,60.5428204 28.1263979,60.7930294 27.6825489,61.0367813 C27.5653514,61.1011208 27.4341096,61.1578502 27.3447587,61.2496319 C26.923429,61.6808677 26.385144,61.9642841 25.8911713,62.3005097 C25.1809644,62.7840933 24.3809223,63.0677403 23.5031521,63.1258534 C23.3842596,63.1334634 23.268515,63.1482223 23.1706891,63.2107169 C22.4035784,63.7012187 21.5563183,63.5628543 20.7257661,63.4747623 C20.1547918,63.4143432 19.6317618,63.4297939 19.2140643,63.8667948 C19.1498962,63.9339016 19.0745896,64.0259139 18.9738579,63.9931677 C18.8738527,63.960652 18.8808748,63.8407362 18.8682834,63.754489 C18.8029046,63.3031904 18.6924872,62.8721853 18.4045786,62.4919138 C18.2997304,62.3535493 18.3304826,62.1713695 18.3803642,62.0087913 C18.464388,61.7339074 18.584249,61.4740129 18.7217865,61.2182693 C19.4511228,59.8641429 20.2221077,58.5333079 21.095035,57.2571267 C21.1282086,57.2084686 21.1885024,57.1598104 21.1451587,57.0599574 C20.8156014,57.4012563 20.5637721,57.7799136 20.3005622,58.1486548 C19.5102058,59.2567231 18.8677991,60.4448122 18.2442796,61.6423563 C18.2186124,61.6917062 18.1801115,61.7463602 18.1837437,61.796402 C18.2302352,62.4421026 17.6270558,62.6664835 17.283212,63.0566712 C17.1294509,63.2314716 17.0986987,63.0485999 17.0684307,62.9582018 C16.9420318,62.5832343 17.0124956,62.2036546 17.1049944,61.8399868 C17.2507648,61.2680805 17.4439953,60.7070128 17.6161593,60.1411024 C17.6483644,60.0354842 17.6754845,59.9280212 17.7047838,59.8214806 C17.7038153,59.1928449 18.0713891,58.6949636 18.3624456,58.1733298 C18.5685097,57.8038968 18.8116218,57.4533736 19.0363309,57.0931649 C18.9087213,57.3106276 18.7660988,57.5195579 18.6283192,57.7307942 C18.3484013,58.1604158 18.101657,58.606641 17.8757372,59.0637048 C17.8406263,59.1349624 17.8268242,59.2322788 17.7018781,59.201608" id="Fill-12" fill="#FEFEFE"></path>
                        <path d="M54.0506808,33.0460501 C54.5169263,32.9423397 54.9646425,32.7982974 55.4023992,32.6330522 C57.054062,32.0100983 58.7865593,31.6962015 60.4989058,31.308555 C60.9630669,31.2036923 61.4552536,31.1944736 61.9347014,31.191708 C62.3946933,31.1891728 62.8491264,31.0838492 63.3172249,31.1702745 C63.6683567,31.2350359 63.9875253,31.3758516 64.3238336,31.4742612 C64.3652931,31.4862455 64.4287562,31.5049134 64.4171754,31.5586124 C64.3546387,31.8460054 64.55962,32.0442075 64.6559728,32.2767493 C64.7736344,32.5606854 64.7337962,32.8390902 64.648561,33.1138076 C64.3518593,34.0688652 63.9400438,34.9782902 63.4063976,35.8204188 C63.0971885,36.3080882 62.6719392,36.7243126 62.2337193,37.1066583 C61.6778378,37.5917925 61.0837395,38.0335989 60.5165088,38.5065184 C59.9319067,38.9941877 59.2655438,39.3101588 58.5357178,39.5159663 C57.9402297,39.6837467 57.3845799,39.9575422 56.812022,40.1868574 C56.2656368,40.4060321 55.6810348,40.5493829 55.0885578,40.5687422 C53.9624346,40.605617 52.847429,40.7139368 51.7335815,40.8877093 C50.7992374,41.0338258 49.8452058,41.0269118 48.9099352,40.9268888 C48.4816749,40.8812562 48.0267785,40.7706318 47.6191321,40.5461564 C47.3666693,40.406954 47.0657984,40.3440363 46.7788246,40.278814 C45.9570465,40.0925962 45.1676948,39.7975977 44.3586557,39.5726614 C43.3513521,39.2926432 42.3178758,39.2580731 41.2839363,39.4558143 C41.1331534,39.4846227 40.9914037,39.4809353 40.8533598,39.40442 C40.6951652,39.3168423 40.5172831,39.2737449 40.3433385,39.3062408 C39.9616332,39.3774553 39.5660309,39.3154595 39.1905793,39.4350722 C39.1275794,39.4551229 39.0402597,39.5122788 39.0076017,39.4037286 C38.9786495,39.3078541 39.0349325,39.2541552 39.1333698,39.2288037 C40.350287,38.9172116 41.5248183,38.4392218 42.7815736,38.2864218 C43.2489773,38.2294963 43.7226346,38.2202776 44.1937442,38.1946957 C44.3500858,38.1863989 44.5057326,38.1836333 44.665317,38.1209461 C42.9064153,37.7973696 41.2825466,38.3092381 39.6589094,38.8436924 C41.3675501,37.6964248 43.1598046,36.7409063 45.2536248,36.3945135 C45.0588347,36.3062444 45.0562869,36.3099319 44.8506108,36.3408145 C42.9425476,36.6272857 41.288337,37.4864689 39.7506299,38.5973226 C39.5407846,38.7489702 39.2992078,38.7869974 39.0191825,38.9414107 C39.1102081,38.4756357 39.271877,38.1055048 39.5359207,37.7913775 C39.8448981,37.4240122 40.2900665,37.2313413 40.6896063,36.984741 C41.7200716,36.3488809 42.7421987,35.6948139 43.9252997,35.3569485 C44.0251268,35.328601 44.1518214,35.3451946 44.2245493,35.2354921 C43.2397126,35.1416918 39.8935377,36.9043078 39.1166934,37.9351892 C39.0905206,37.5768122 39.2118881,37.2961026 39.4418841,37.0529594 C39.862501,36.6081569 40.361173,36.2534673 40.8274186,35.861442 C42.1066409,34.7851584 43.508157,33.8672061 44.8072983,32.8155825 C45.5614442,32.2050739 46.2952078,31.5726709 47.0356882,30.9474124 C48.1224365,30.02946 49.2615303,29.17673 50.4909548,28.4500657 C50.772833,28.2832072 51.0755568,28.1691257 51.3782806,28.0605755 C52.2822828,27.7360772 53.1684505,27.3539619 54.113449,27.1555293 C54.9780764,26.9743818 55.8538213,26.9923583 56.7332721,27.0117176 C57.335477,27.0250847 57.9293437,27.1062093 58.5269163,27.1499981 C58.8516437,27.1737363 59.1687278,27.3078684 59.4872016,27.3995945 C59.6375212,27.4431529 59.7820504,27.5484766 59.9302854,27.5503203 C60.7414091,27.5599999 61.4723933,27.9033966 62.2320979,28.1062081 C62.843336,28.2696096 63.3677175,28.6558733 63.8045477,29.144695 C64.1605434,29.542943 64.5385428,29.9262105 64.8329284,30.3691692 C65.0802956,30.7418353 65.0705677,31.1416965 64.6846933,31.2997973 C64.6013111,31.3339065 64.535995,31.3576446 64.4528444,31.3080941 C63.6039671,30.8017568 62.6751818,30.9156078 61.7517237,30.9554787 C60.1398991,31.0248495 58.5984861,31.461816 57.0515142,31.8517671 C56.0564864,32.1025158 55.1117195,32.5212754 54.169732,32.9303554 C54.1247983,32.9497146 54.0585557,32.9547849 54.0506808,33.0460501" id="Fill-14" fill="#FEFEFE"></path>
                        <path d="M40.0679653,40.5734838 C40.756031,41.6066196 41.3976841,42.5857246 42.0555817,43.5538362 C42.7164961,44.5259241 43.0968467,45.6488775 43.7027622,46.6495012 C43.1734274,44.4506084 41.7613263,42.7326137 40.611456,40.8679638 C41.1122471,41.1112197 41.4468814,41.53107 41.7889417,41.9436694 C42.5447697,42.8554111 43.2762311,43.7851632 43.8916612,44.801926 C43.9487486,44.8959538 44.0239369,44.9785204 44.1012137,45.0805008 C44.094716,44.633752 43.5331244,43.7603698 42.434772,42.3819978 C41.7636469,41.5394904 41.0846317,40.7163967 40.0419743,40.2525732 C40.4427464,40.05446 42.38279,40.9928663 43.2799441,41.7736242 C44.191022,42.5663109 45.0069542,43.4471779 45.6281858,44.5041714 C45.6639235,44.4669814 45.6996611,44.4300252 45.7351667,44.3928351 C44.5813513,42.3214177 42.9357952,40.8246923 40.6481219,40.0907145 C41.4071987,39.8455874 42.0771635,40.1400674 42.7315801,40.4651882 C43.1079857,40.6523081 43.4816065,40.8317093 43.8958383,40.9126387 C44.5449175,41.0389446 45.0995472,41.3841809 45.6759907,41.6824032 C46.5582928,42.138508 47.4693707,42.5410497 48.3409979,43.0118902 C49.123049,43.4343134 49.91972,43.8384924 50.6590715,44.34395 C51.9500359,45.2266882 53.1776472,46.1884845 54.3432978,47.2326136 C54.8176338,47.6578436 55.1975203,48.1658742 55.5959718,48.6589351 C56.4320935,49.6925387 57.1737656,50.7869563 57.6583124,52.0345783 C57.894088,52.6417824 58.0616372,53.2651256 57.9783268,53.9448387 C57.9045308,54.5450258 58.0479455,55.1545689 57.9727573,55.7629425 C57.8971048,56.3736551 57.8311991,56.9857711 57.7098303,57.5892328 C57.6283763,57.9950491 57.3004718,58.1716435 56.9558588,58.2839155 C56.4694556,58.4424996 56.1383022,58.7423592 55.9600781,59.2225557 C55.8918517,59.4068688 55.8087733,59.5836971 55.8751432,59.7906985 C55.9080961,59.8936145 55.852169,59.9923202 55.8157351,60.0877514 C55.7660737,60.2196709 55.7280155,60.3515905 55.7231422,60.4949711 C55.7089863,60.9026586 55.4474518,61.0822937 55.0529453,60.9644082 C54.9267032,60.9265164 54.8057986,60.8741228 54.7076361,60.7880476 C54.4075791,60.525612 54.0606455,60.4538047 53.6728688,60.4767269 C52.9919971,60.5169577 52.3199437,60.4867846 51.6987121,60.1459925 C51.39471,59.9789879 51.1429221,59.7415795 50.8625904,59.5425307 C49.4801934,58.5622563 48.3878746,57.3022376 47.3865244,55.9435132 C46.688712,54.9969203 46.1426687,53.9469438 45.4040133,53.0312257 C44.4312068,51.8252379 43.5396222,50.5628802 42.7475924,49.229183 C42.4848976,48.7868784 42.2878764,48.3125294 42.0695055,47.8482381 C41.7515797,47.1727352 41.4496662,46.4855374 41.074885,45.8425466 C40.4842856,44.8295262 40.3074539,43.7093796 40.1406009,42.58245 C40.0470797,41.9495169 39.9194452,41.3142448 40.0679653,40.5734838" id="Fill-16" fill="#FEFEFE"></path>
                        <path d="M18,59.3461975 C18.0607725,59.3155505 18.0671245,59.2345549 18.0894421,59.1642614 C18.3342489,58.3944381 18.6353648,57.6713151 19,57 C18.6839485,58.0118372 18.1503863,58.8779796 18.0020601,60 C18.0013734,59.7823091 18.0006867,59.5641317 18,59.3461975" id="Fill-18" fill="#BFD3B3"></path>
                        <path d="M33.2977916,17 C32.9523252,16.3122725 32.9675193,15.6169849 33.0474884,14.9233512 C33.107865,14.3979283 33.2498102,13.8765217 33.5137081,13.3702352 C33.5600902,13.2802234 33.6204669,13.1928105 33.6792441,13.1051612 C33.7144305,13.0524772 33.7628118,12.9896344 33.873569,13.0014469 C34.0203123,13.0168033 33.9991205,13.0973649 33.9987207,13.1618615 C33.9987207,13.1994255 33.9931228,13.2381707 33.9763293,13.2740809 C33.4205442,14.4574636 33.3741621,15.673449 33.3145851,16.8884894 C33.3125859,16.9258171 33.3033894,16.9629085 33.2977916,17" id="Fill-20" fill="#99B985"></path>
                        <path d="M34.2433723,15 C33.8817582,14.4594501 34.0011904,13.9610077 34.1081817,13.4630727 C34.1272577,13.373277 34.1985853,13.2844959 34.2408842,13.1952075 C34.2782067,13.1158119 34.2798655,13.0064843 34.5801047,13.0003965 C34.9807002,12.9920257 35.0138758,13.1180948 34.9964586,13.2002807 C34.8695619,13.7715235 34.7119778,14.342259 34.5577112,14.9127409 C34.5543936,14.9266922 34.4681371,14.9388679 34.2433723,15" id="Fill-22" fill="#9DBC8A"></path>
                        <path d="M19,41 C17.3368142,41.6802111 15.5768427,42.0891821 14,43 C15.4680862,41.7931398 17.2919872,41.5498681 19,41" id="Fill-24" fill="#A1BF8F"></path>
                        <path d="M13,43 C12.7078465,43.3023472 12.3926129,43.5893688 12.2231639,43.9295567 C12.2032975,43.9692894 12.1647332,44.0205636 12.0741656,43.9914262 C12.002588,43.968911 11.9909019,43.9208533 12.0055096,43.8743093 C12.0467032,43.7397856 12.1384394,43.6177494 12.2471205,43.5023352 C12.4387732,43.2995091 12.6578883,43.1118193 13,43" id="Fill-26" fill="#A4C092"></path>
                        <path d="M37,41.0388127 C36.716517,41.2460242 36.4225258,41.4221421 36.1746274,41.648342 C34.9231945,42.7914469 33.8826423,44.1120937 32.9493217,45.5177139 C32.6252388,46.0059545 32.3274264,46.5112847 32,47 C32.0640046,46.570861 32.2784677,46.2034344 32.4934085,45.8402803 C33.4131162,44.2863128 34.5085976,42.8683501 35.8357375,41.6331513 C36.0740829,41.4112237 36.3489683,41.2391409 36.6326901,41.0817741 C36.7377723,41.0236219 36.8478697,40.9555009 37,41.0388127" id="Fill-28" fill="#9ABA86"></path>
                        <path d="M36,45 C36.3980941,43.799725 36.9403627,42.7183776 38,42 C37.3154012,43.0270394 36.6578543,44.0135197 36,45" id="Fill-30" fill="#A0BE8E"></path>
                        <path d="M49,49 C50.5512579,50.2199292 54.3285069,57.1802365 53.9770453,58 C53.9342533,57.9986443 53.9279664,57.9595541 53.921071,57.9270166 C53.6839916,56.8313625 53.1976644,55.8681178 52.6805109,54.9118777 C51.7970909,53.2786774 50.8883203,51.666265 49.8345439,50.1605031 C49.5615679,49.7700535 49.2283588,49.433607 49,49" id="Fill-32" fill="#9CBB8A"></path>
                        <path d="M52,52 C52.8021474,52.9084962 53.6155558,53.8138934 54,55 C53.4311903,53.9365585 52.6389944,53.021348 52,52" id="Fill-34" fill="#A6C295"></path>
                        <path d="M53.0945757,58 C53.4055581,58.5750142 53.7173582,59.1497781 53.968379,59.7505654 C54.0013579,59.8298863 54.0348818,59.9462403 53.9220451,59.9885281 C53.7830433,60.0400742 53.7740491,59.9054539 53.7413428,59.8318881 C53.5412892,59.3809849 53.2807291,58.952852 53.1291899,58.4834323 C53.0806755,58.3335483 53.0430633,58.1809118 53,58.0292762 C53.0316161,58.0195175 53.0632322,58.0097587 53.0945757,58" id="Fill-36" fill="#9EBC8B"></path>
                        <path d="M55,59 C54.6002443,58.7116502 53.956991,56.7471814 54.0022672,56 C54.3470841,56.9938504 54.6515941,58.0078579 55,59" id="Fill-38" fill="#A3C092"></path>
                    </g>
                    <g id="Jasmine" transform="translate(39.437638, 206.000000)">
                        <path d="M32.0615209,28.6210555 C31.8028966,28.6999597 31.6706756,28.5706374 31.5590811,28.4161062 C31.1685003,27.8776417 31.0167106,27.2607772 30.953509,26.625006 C30.7869105,24.9478505 30.7713084,23.2646449 30.7504175,21.5816913 C30.745922,21.2355716 30.7123379,20.8894519 30.6903892,20.5130813 C30.5549949,20.6270261 30.5690103,20.7427354 30.5674237,20.8496216 C30.5393928,22.7241637 30.5132131,24.599462 30.695678,26.4692143 C30.7654907,27.1833856 30.9096116,27.8854565 31.3612785,28.4907249 C31.4009448,28.544168 31.4829218,28.608703 31.4228935,28.6744986 C31.3639229,28.7395378 31.2676661,28.8025603 31.1703514,28.7655031 C30.987622,28.6964304 30.7998682,28.6434915 30.677696,28.4627429 C30.3635389,27.9981408 30.2490355,27.4765664 30.1919161,26.9451604 C30.1001547,26.0883062 30.0411841,25.2284268 29.9676693,24.3602285 C29.8989143,24.4298053 29.8875433,24.5117346 29.88675,24.58837 C29.8756434,25.6557195 29.838886,26.7265983 30.1247478,27.772016 C30.2500933,28.23082 30.4153695,28.6790362 30.8911007,28.9346556 C30.8146769,29.0117951 30.7329644,29.0100305 30.6300964,28.9833089 C29.162179,28.6008883 27.9362259,27.9028507 26.9813259,26.728615 C25.6887335,25.1389348 24.6388988,23.432789 23.8212442,21.5814392 C23.1931945,20.159651 22.6124799,18.7229895 22.176944,17.2391871 C21.6879907,15.5731236 21.1829065,13.8972286 21.0808319,12.1646133 C20.9954172,10.7206411 20.918729,9.25751015 21.1776177,7.82185699 C21.3759492,6.7235004 21.9196419,5.73228209 22.4889855,4.76425608 C22.698688,4.40754858 22.8510066,4.00975039 23.2831048,3.81639728 C23.4748252,3.73043455 23.6686612,3.65405125 23.8664638,3.58270975 C24.5664417,3.33087173 25.251082,3.05130381 25.7765282,2.50729335 C25.6318785,4.85601688 25.8651163,8.21184039 26.6721933,9.53128001 C26.7137106,9.32179313 26.6412535,9.16474099 26.6029095,9.01625992 C26.2715636,7.73992771 26.1221539,6.44468874 26.0565723,5.13230764 C26.0100305,4.20486814 25.9452422,3.2807058 26.0697944,2.35729974 C26.1671091,1.63884294 26.4511198,0.973829233 26.8271563,0.351670849 C27.058543,-0.031254024 27.5181432,-0.0945286409 27.926706,0.128066924 C28.3199313,0.341839335 28.7102476,0.570989242 29.184921,0.59014809 C29.3814014,0.597962883 29.558842,0.555359655 29.7312581,0.465363487 C30.5028998,0.0615151354 31.2573528,0.155796836 31.9853616,0.56720789 C32.4171954,0.811231114 32.8434758,1.05197717 33.371302,1.0129032 C34.2222763,0.950132763 34.884968,1.37566086 35.4754669,1.85160699 C36.2476375,2.47326119 36.9415333,3.18314693 37.6687487,3.85572334 C37.8906155,4.06092468 38.152942,4.21419547 38.4068063,4.37704568 C38.8473666,4.6593866 39.2138832,5.01332111 39.4151236,5.47918363 C40.0780796,7.01617701 40.6836518,8.56779162 40.7915441,10.2560391 C40.8245994,10.7748405 40.9391027,11.290869 40.9750669,11.8129476 C41.0401196,12.7595459 40.9726869,13.6975732 40.8330615,14.6368609 C40.701105,15.523966 40.5516952,16.4138441 40.3031198,17.26969 C40.1103416,17.9324349 39.9162411,18.6032467 39.7075964,19.264479 C39.4249079,20.1609115 38.9182371,20.9691123 38.7098568,21.8968039 C38.5546294,22.5867746 38.2708831,23.2616198 37.924993,23.8983994 C37.7702944,24.1830091 37.4347176,24.3554388 37.3540628,24.6856768 C37.2390305,25.1548165 36.8431608,25.3590095 36.4739998,25.6116038 C35.4778469,26.2930033 34.5504488,27.0565843 33.654255,27.853189 C33.3644265,28.1110772 33.1615995,28.4312316 33.0997201,28.8171816 C33.0875558,28.8925565 33.0962824,28.9989385 32.9762257,28.99188 C32.8572268,28.9845694 32.7987851,28.9127237 32.7940252,28.7884433 C32.7802742,28.4362734 32.7501278,28.0846077 32.7345257,27.7324378 C32.699355,26.9375977 32.7583255,26.1399846 32.6403844,25.2891805 C32.4772237,25.5949658 32.5351365,25.8858778 32.4922969,26.15511 C32.4465484,26.4414844 32.4674393,26.7384465 32.4682327,27.030619 C32.4687615,27.3230435 32.4595061,27.6174847 32.4933547,27.9068842 C32.5274677,28.1957794 32.5057834,28.4889602 32.6044203,28.7846619 C32.3844046,28.7846619 32.2892054,28.6876072 32.2188639,28.5232445 C31.853405,27.6737008 31.6852199,26.7881083 31.6598335,25.8740296 C31.618845,24.3932523 31.5752121,22.9127271 31.5381902,21.4319498 C31.5276125,21.015749 31.5366036,20.5992962 31.520737,20.1803224 C31.3776739,20.5448447 31.3398587,20.9312988 31.3313966,21.3137195 C31.3038946,22.5930768 31.3284877,23.8704174 31.4281823,25.1490184 C31.4927062,25.9713363 31.4853018,26.7954189 31.6931532,27.6051323 C31.7817413,27.9502437 31.9200444,28.2739274 32.0615209,28.6210555" id="Fill-8" fill="#FEFEFE"></path>
                        <path d="M28.1962932,28.0673845 C27.7720072,27.9893159 27.4123644,27.8637384 27.0604174,27.7522852 C25.7996157,27.3532109 24.5046967,27.2281471 23.1979777,27.1017992 C22.1434191,26.999591 21.1452952,27.2183885 20.1212625,27.3532109 C18.4089836,27.5786853 16.7549349,28.0514626 15.0770298,28.4235724 C14.8407738,28.4757038 14.6032351,28.5381073 14.3667226,28.6806338 C14.4598398,28.746119 14.5303831,28.7101664 14.6027221,28.6952717 C16.0661755,28.3904446 17.5237289,28.0491513 18.9961606,27.7974828 C19.8939848,27.6441705 20.7884742,27.4669753 21.6904027,27.3378026 C22.3676186,27.2409873 23.0414998,27.3501292 23.714868,27.401747 C24.0927237,27.4307659 24.4710924,27.41356 24.8494612,27.4705706 C25.9763588,27.6405752 27.0632391,27.9674875 28.1544803,28.2787346 C28.4153623,28.353208 28.648027,28.4947073 28.8581179,28.6511013 C29.4350341,29.0817626 30.1025022,29.3167388 30.7553486,29.5863836 C30.8995136,29.6457055 31.0629176,29.6629114 30.9754438,29.8955763 C30.892331,30.1177123 30.7620182,30.05762 30.6119533,29.9921349 C28.8788961,29.2353317 27.0634956,29.058907 25.1973039,29.2065696 C23.8015721,29.3169956 22.4579141,29.6734404 21.0706475,30.0031775 C21.2838166,30.0833005 21.3653903,30.0874094 21.8561154,30.0052319 C23.0168738,29.8110876 24.1740409,29.5738002 25.3491645,29.4990701 C26.7874788,29.4076476 28.218354,29.4944476 29.6056207,29.9320426 C29.9462808,30.0396437 30.3028453,30.1025608 30.6250359,30.2707678 C30.699427,30.3095453 30.7994703,30.3275217 30.7622747,30.4333252 C30.7155879,30.5671203 30.6199055,30.46106 30.5588534,30.4433405 C29.5150687,30.1382567 28.4451188,30.2039987 27.3823515,30.2399513 C26.7382267,30.2617797 26.0930759,30.2504803 25.4484382,30.3177631 C23.9742109,30.4713322 22.5302531,30.7368682 21.1622255,31.331114 C21.053204,31.3786228 20.9308434,31.4143187 20.8418306,31.5337328 C20.9372565,31.5879186 21.0170346,31.5455458 21.0988648,31.5239742 C22.0685149,31.2684537 23.0271346,30.9751828 24.0226934,30.8141664 C25.2911907,30.6089795 26.5637923,30.5147322 27.8463983,30.5157594 C28.7372964,30.516273 29.6299902,30.4718458 30.5147318,30.6200221 C30.5793751,30.6308079 30.6999401,30.5501712 30.7078922,30.6916706 C30.7137922,30.8005557 30.6034881,30.7972173 30.5334578,30.8326563 C30.0914718,31.0553059 29.6117772,31.0997331 29.1300304,31.1238727 C28.659314,31.1477555 28.1883411,31.1595685 27.7322464,31.2992702 C27.5657641,31.3506311 27.4141601,31.4248477 27.3028299,31.5958795 C28.405871,31.2820643 29.609725,31.6441588 30.6622315,31.0332207 C30.7386748,31.3693779 30.7184096,31.4166299 30.4180233,31.4292134 C29.4714601,31.4690181 28.6018532,31.8059457 27.7345551,32.1333715 C26.7292485,32.5126719 25.7675505,32.9993166 24.7932831,33.4492383 C24.1194019,33.7602286 23.4557815,34.1174438 22.8316655,34.5355217 C22.4240533,34.808505 21.9830934,35.0326954 21.5562421,35.2735781 C20.1664103,36.0586297 18.8519957,36.9397263 17.6922634,38.0424452 C17.1043168,38.6015088 16.343988,38.8172246 15.6123895,39.0894375 C15.0267516,39.3072078 14.4177703,39.4469095 13.8203325,39.6246182 C13.4568419,39.732733 13.0818079,39.7237448 12.7265261,39.7296513 C11.5562764,39.7486549 10.4083441,40.0478322 9.23886393,39.9933896 C8.41594394,39.9553826 7.57609355,39.9713044 6.81832994,39.5419272 C6.52333057,39.3747474 6.17138349,39.4828621 5.85124504,39.4017119 C5.56035,39.3280089 5.28048538,39.2458315 5.03550764,39.063757 C4.62019983,38.7553347 4.10638788,38.6954992 3.63977582,38.5167632 C3.12468127,38.3190237 2.758369,37.8978642 2.31843515,37.5868738 C2.22147014,37.518307 2.2984265,37.4399816 2.34947422,37.3773213 C2.54981727,37.1307889 2.7619603,36.8932446 2.95178598,36.6384945 C3.19445503,36.3133799 3.2170289,35.9145623 3.03156407,35.6292524 C2.81788192,35.3002857 2.56803028,35.2327461 2.21659624,35.4099413 C1.84387094,35.5981791 1.5201412,35.8768121 1.09072472,35.9613008 C0.572295386,36.0632522 0.393243592,35.962328 0.292687284,35.4574502 C0.209574417,35.0393723 0.259083008,34.6176991 0.25728736,34.1985941 C0.256261275,33.8634641 0.217526574,33.5422015 0.0669486336,33.2425106 C-0.0423293951,33.0252539 -0.0125729366,32.8352185 0.117996351,32.6361949 C0.398887059,32.2070745 0.640786545,31.7717907 0.706199449,31.2360963 C0.752116743,30.8616752 1.12330291,30.6603404 1.40906752,30.4536127 C2.23814402,29.8532036 2.83712101,29.083817 3.23062452,28.1418578 C3.60565851,27.2438121 4.23413543,26.5445332 5.0314033,26.0096093 C5.39489383,25.7659017 5.84893635,25.6939964 6.25449636,25.5203965 C7.49785458,24.9877838 8.7725084,24.5340101 10.0861534,24.2109499 C12.0749622,23.721994 14.0899362,23.3640084 16.1233797,23.1228689 C17.2728512,22.9867624 18.4228357,22.9477281 19.5843637,23.0882003 C20.1892407,23.1613896 20.804635,23.2178866 21.4169511,23.2427966 C21.954876,23.2648818 22.4797184,23.3501409 22.9812173,23.5296473 C23.607129,23.753581 24.2338103,23.9826506 24.8225265,24.2977499 C24.920261,24.350138 25.0044,24.4282066 25.0928998,24.4967734 C26.0607543,25.243818 26.7466919,26.2379086 27.4695687,27.2011826 C27.6835073,27.4862357 27.927459,27.74869 28.1962932,28.0673845" id="Fill-10" fill="#FEFEFE"></path>
                        <path d="M9.762911,52.5757308 C9.72079909,52.1787051 9.57577619,51.8077481 9.45733644,51.4307953 C9.00094858,49.9792924 9.33784388,48.6677783 10.1292846,47.4164827 C10.7778081,46.3909417 11.4650219,45.3945976 12.2343539,44.4550831 C13.2745181,43.1842361 14.3594263,41.9522313 15.4709176,40.7416028 C16.5089762,39.6104838 17.6852146,38.6308236 18.8704018,37.6691508 C20.0500617,36.7119097 21.3923789,35.9817266 22.722589,35.2392912 C23.803286,34.6363232 24.8716126,34.0179746 26.0196886,33.543525 C26.8903524,33.1837775 27.7120611,32.6999432 28.6227312,32.4457738 C29.2644115,32.2669428 29.9010909,32.0409276 30.5790927,32.0065169 C30.9346752,31.9885296 30.9341488,31.981491 31.2770977,32.3574011 C31.0436398,32.4405601 30.8170251,32.5135523 30.5962007,32.6016644 C30.0182147,32.8321113 29.5597213,33.2335687 29.1125454,33.6457142 C27.9699965,34.6983666 26.9550994,35.8693707 25.934412,37.034379 C25.8617689,37.1172773 25.8096554,37.2179023 25.7056916,37.3740536 C25.9496775,37.2885484 26.0699597,37.1589872 26.1883994,37.03855 C26.9603634,36.2557082 27.7246947,35.4647851 28.4969219,34.6819433 C28.9527833,34.2194853 29.4199623,33.7692796 29.9284637,33.3615658 C30.3361596,33.0349255 30.8064971,32.8383678 31.2868361,32.6462418 C31.6987432,32.4814879 32.0709073,32.6934261 32.4614953,32.71011 C32.6286269,32.7171486 32.4949216,32.8589621 32.4583369,32.9173559 C32.1751342,33.3706898 31.9295692,33.8414898 31.7524359,34.3459183 C31.7190096,34.4415903 31.6521569,34.5325699 31.703744,34.6644773 C31.9019332,34.547429 31.9490459,34.3341874 32.0459033,34.1642198 C32.2730444,33.7653693 32.4799192,33.3547879 32.6962692,32.9499417 C32.7375915,32.8725178 32.7557522,32.7244478 32.8712968,32.7731962 C33.0152669,32.8336755 32.8618216,32.9236123 32.8423449,32.9976473 C32.8049705,33.137636 32.7433819,33.2711075 32.7020596,33.4103142 C32.6936372,33.4397718 32.7194307,33.4976442 32.7470667,33.5156315 C32.8062865,33.5544738 32.8405025,33.5020758 32.8665592,33.4567164 C32.8876152,33.4207416 32.9144615,33.3834635 32.9197255,33.3440998 C32.9905262,32.8500987 33.3834829,32.6738746 33.7709125,32.4916547 C33.8443452,32.457244 33.9627849,32.3944186 33.9448874,32.5417065 C33.8722443,33.1339864 34.0733287,33.7197491 33.9696281,34.3117684 C33.8985643,34.7173967 33.7288006,35.0896571 33.5593002,35.4554004 C32.9107767,36.8558087 32.3343699,38.2867173 31.6700545,39.6813905 C30.8849305,41.3302331 30.0834882,42.9699517 29.21493,44.5768238 C28.4374388,46.0160744 27.4291217,47.2996951 26.4058022,48.5718456 C25.8417657,49.2730925 25.4274898,50.0765285 24.8595054,50.7782968 C24.2944161,51.4769368 23.7364333,52.182094 23.2063496,52.9091489 C22.9163038,53.307478 22.4933423,53.5994469 22.0622216,53.8298939 C21.5716178,54.0918839 21.0939108,54.3747288 20.6114662,54.6502745 C20.4840776,54.7230061 20.3414235,54.787135 20.2443029,54.8908883 C19.7863359,55.3783722 19.2012435,55.698756 18.6643166,56.078837 C17.8923526,56.6254968 17.0227416,56.9461412 16.0686436,57.0118343 C15.9394126,57.0204369 15.8136033,57.0371209 15.7072707,57.1077669 C14.8734548,57.6622473 13.9525199,57.5058353 13.0497458,57.4062531 C12.4291215,57.3379532 11.8606107,57.3554192 11.4065916,57.8494202 C11.3368437,57.92528 11.2549887,58.029294 11.1454977,57.9922765 C11.0367964,57.9555197 11.0444292,57.8199627 11.0307428,57.7224659 C10.9596789,57.2123022 10.83966,56.725079 10.5267158,56.2952069 C10.4127505,56.1387949 10.4461768,55.9328525 10.5003959,55.7490685 C10.5917261,55.4383301 10.7220098,55.1445363 10.8715071,54.8554349 C11.6642639,53.3246833 12.5022909,51.820261 13.451125,50.3776215 C13.4871833,50.3226167 13.55272,50.2676118 13.5056073,50.1547345 C13.1473928,50.5405506 12.8736654,50.968598 12.5875676,51.3854358 C11.7284845,52.6380348 11.0302164,53.9810921 10.3524778,55.3348375 C10.3245786,55.3906244 10.2827299,55.4524072 10.2866779,55.5089761 C10.3372122,56.2388986 9.68158237,56.4925466 9.30783914,56.9336283 C9.14070749,57.1312287 9.10728116,56.9245043 9.07438123,56.8223151 C8.93699111,56.3984387 9.01358215,55.9693486 9.11412435,55.5582459 C9.27257042,54.9117432 9.48260358,54.2774927 9.6697384,53.6377679 C9.70474392,53.5183734 9.73422226,53.3968935 9.7660694,53.2764563 C9.7650166,52.5658247 10.1645534,52.0030023 10.4809191,51.4133293 C10.7049019,50.9957094 10.9691541,50.5994658 11.2134032,50.1922734 C11.0746971,50.4381008 10.9196726,50.6742828 10.7699121,50.9130718 C10.4656535,51.3987309 10.1974533,51.9031594 9.95188821,52.4198402 C9.91372429,52.5003923 9.89872192,52.6104021 9.762911,52.5757308" id="Fill-12" fill="#FEFEFE"></path>
                        <path d="M50.7872978,23.4779108 C51.3073409,23.3667925 51.8067167,23.2124616 52.2949837,23.0354131 C54.137223,22.3679625 56.0696238,22.0316445 57.9795488,21.616309 C58.4972669,21.503956 59.0462444,21.4940789 59.5810131,21.4911157 C60.094081,21.4883995 60.6009487,21.3755527 61.1230585,21.4681512 C61.5147056,21.5375385 61.8707013,21.6884124 62.2458144,21.7938513 C62.2920577,21.8066917 62.3628435,21.8266929 62.3499264,21.8842275 C62.2801739,22.1921487 62.5088069,22.4045081 62.6162773,22.65366 C62.7475153,22.9578772 62.7030804,23.2561681 62.6080104,23.5505081 C62.2770738,24.5737841 61.8177411,25.5481681 61.2225204,26.4504487 C60.8776333,26.9729516 60.4033168,27.4189063 59.914533,27.8285625 C59.2945114,28.3483492 58.6318633,28.8217131 57.9991828,29.3284125 C57.3471267,29.8509154 56.6038758,30.1894558 55.7898391,30.4099639 C55.1256409,30.5897286 54.5058776,30.8830809 53.8672553,31.1287758 C53.2578257,31.3636058 52.6057696,31.517196 51.9449298,31.5379381 C50.6888693,31.5774468 49.4452093,31.6935037 48.2028409,31.8796886 C47.1606879,32.0362419 46.0965757,32.028834 45.0533893,31.9216666 C44.5757143,31.8727745 44.0683299,31.7542484 43.6136474,31.513739 C43.3320542,31.3645935 42.9964675,31.2971818 42.6763813,31.2273007 C41.7597827,31.0277816 40.8793519,30.7117118 39.9769621,30.4707086 C38.8534312,30.1706892 37.7007076,30.1336498 36.5474674,30.3455153 C36.3792865,30.3763815 36.221181,30.3724306 36.067209,30.29045 C35.8907611,30.1966168 35.6923542,30.150441 35.4983391,30.185258 C35.0725909,30.2615593 34.6313422,30.1951352 34.2125692,30.3232917 C34.1423001,30.3447745 34.044905,30.4060131 34.0084788,30.2897092 C33.976186,30.1869865 34.0389632,30.129452 34.1487587,30.1022897 C35.5060894,29.768441 36.8161434,29.2563091 38.217909,29.0925948 C38.7392439,29.0316032 39.267554,29.021726 39.7930223,28.9943168 C39.9674034,28.9854274 40.1410095,28.9824642 40.3190074,28.9152994 C38.3571556,28.5686103 36.5459173,29.1170408 34.7349375,29.6896704 C36.640729,28.4604552 38.6397821,27.4366853 40.9751969,27.0655502 C40.757931,26.9709762 40.7550893,26.974927 40.5256813,27.0080156 C38.397457,27.314949 36.5523759,28.2355024 34.837241,29.4257028 C34.6031829,29.5881824 34.3337318,29.6289258 34.0213959,29.7943686 C34.1229244,29.295324 34.3032474,28.8987551 34.5977577,28.5621901 C34.9423864,28.1685844 35.4389204,27.9621513 35.8845609,27.6979367 C37.033926,27.0166581 38.1739908,26.3158721 39.4936036,25.9538734 C39.6049491,25.923501 39.7462624,25.94128 39.8273819,25.8237415 C38.7289102,25.7232412 34.9966383,27.6117583 34.130158,28.7162742 C34.1009653,28.3322987 34.2363367,28.0315385 34.4928707,27.7710279 C34.9620204,27.2944539 35.5182315,26.9144293 36.0382746,26.4944021 C37.4650994,25.3412412 39.028329,24.3577208 40.4773712,23.2309813 C41.3185339,22.5768649 42.1369625,21.8992902 42.962883,21.2293704 C44.1750253,20.24585 45.445553,19.3322107 46.8168342,18.5536418 C47.1312368,18.3748648 47.4688903,18.2526347 47.8065437,18.1363309 C48.8148539,17.7886541 49.8032718,17.3792449 50.8573086,17.1666386 C51.8217005,16.972552 52.798493,16.9918125 53.7794189,17.0125545 C54.451109,17.0268765 55.1134988,17.1137957 55.780022,17.1607123 C56.142218,17.186146 56.4958887,17.329859 56.8511094,17.428137 C57.0187736,17.4748066 57.1799792,17.5876535 57.3453184,17.5896289 C58.2500333,17.5999999 59.0653617,17.967925 59.9127246,18.185223 C60.5944901,18.360296 61.1793772,18.7741499 61.6666109,19.2978875 C62.063683,19.7245817 62.4852978,20.1352256 62.8136509,20.6098242 C63.0895605,21.0091092 63.0787101,21.437532 62.6483118,21.6069257 C62.5553085,21.6434712 62.482456,21.668905 62.3897111,21.6158151 C61.4428864,21.0733109 60.4069336,21.1952941 59.3769226,21.2380129 C57.5791182,21.3123387 55.8598498,21.7805171 54.1343813,22.1983219 C53.0245425,22.4669813 51.9707641,22.9156522 50.9200857,23.3539522 C50.8699673,23.3746943 50.7960814,23.3801267 50.7872978,23.4779108" id="Fill-14" fill="#FEFEFE"></path>
                        <path d="M35.075517,32.6281014 C35.8400344,33.759631 36.5529824,34.8319841 37.2839797,35.8922968 C38.018329,36.9569645 38.4409408,38.1868658 39.1141802,39.282787 C38.5260304,36.8744758 36.9570292,34.9928626 35.6793955,32.950627 C36.2358301,33.2170501 36.607646,33.6768862 36.987713,34.1287808 C37.8275219,35.1273551 38.6402568,36.1456549 39.324068,37.2592523 C39.3874984,37.3622351 39.471041,37.4526652 39.5569042,37.564358 C39.5496844,37.0750617 38.9256938,36.1185003 37.7053023,34.6088547 C36.9596077,33.6861085 36.2051463,32.7846249 35.0466381,32.2766278 C35.4919405,32.0596467 37.6475444,33.087425 38.6443823,33.9425408 C39.6566911,34.8107214 40.5632824,35.7754805 41.2535398,36.9331401 C41.2932483,36.8924082 41.3329568,36.8519323 41.3724074,36.8112003 C40.0903904,34.5425051 38.2619947,32.9032345 35.7201354,32.099354 C36.5635541,31.8308814 37.3079595,32.1534071 38.035089,32.5094918 C38.4533175,32.7144327 38.8684517,32.9109197 39.3287092,32.9995567 C40.0499083,33.1378917 40.6661635,33.5160076 41.3066564,33.8426321 C42.286992,34.3421754 43.2993008,34.7830544 44.2677755,35.2987368 C45.1367211,35.7613908 46.0219111,36.2040631 46.8434128,36.7576595 C48.2778177,37.724468 49.6418302,38.777864 50.9369975,39.921434 C51.4640375,40.387162 51.8861337,40.9435765 52.3288576,41.4835956 C53.2578816,42.6156376 54.0819618,43.8142855 54.6203471,45.1807286 C54.88232,45.8457617 55.0684858,46.5284709 54.9759186,47.2729185 C54.8939232,47.9302663 55.0532728,48.5978611 54.9697303,49.2641751 C54.885672,49.9330508 54.8124434,50.6034636 54.6775892,51.2643978 C54.5870848,51.7088633 54.2227465,51.9022762 53.8398431,52.0252407 C53.2993951,52.1989281 52.9314469,52.5273458 52.7334201,53.0532753 C52.657613,53.255142 52.5653036,53.4488111 52.639048,53.675527 C52.6756623,53.7882444 52.6135211,53.8963507 52.573039,54.0008706 C52.5178597,54.1453539 52.4755727,54.2898372 52.470158,54.4468731 C52.4544293,54.893388 52.1638353,55.0901312 51.7254948,54.9610185 C51.5852258,54.9195179 51.4508873,54.8621345 51.3418179,54.7678617 C51.0084213,54.4804322 50.6229394,54.4017861 50.1920765,54.4268914 C49.4355523,54.4709536 48.6888264,54.4379069 47.998569,54.0646584 C47.6607889,53.8817487 47.3810245,53.62173 47.0695449,53.4037241 C45.5335482,52.3300903 44.3198607,50.9500698 43.2072493,49.461943 C42.4319023,48.4251985 41.8251874,47.2752241 41.0044593,46.2722948 C39.9235631,44.951451 38.9329135,43.5688688 38.0528805,42.1081529 C37.7609973,41.6237239 37.5420849,41.1041989 37.2994505,40.5956894 C36.9461996,39.8558529 36.6107402,39.1032076 36.1943167,38.3989796 C35.5380952,37.2894811 35.3416155,36.0626539 35.1562232,34.8283976 C35.0523107,34.1351852 34.9104947,33.439411 35.075517,32.6281014" id="Fill-16" fill="#FEFEFE"></path>
                        <path d="M10,52.3461975 C10.0607725,52.3155505 10.0671245,52.2345549 10.0894421,52.1642614 C10.3342489,51.3944381 10.6353648,50.6713151 11,50 C10.6839485,51.0118372 10.1503863,51.8779796 10.0020601,53 C10.0013734,52.7823091 10.0006867,52.5641317 10,52.3461975" id="Fill-18" fill="#BFD3B3"></path>
                        <path d="M27.2977916,5 C26.9523252,4.3122725 26.9675193,3.61698495 27.0474884,2.92335116 C27.107865,2.39792829 27.2498102,1.8765217 27.5137081,1.37023518 C27.5600902,1.28022344 27.6204669,1.19281047 27.6792441,1.10516124 C27.7144305,1.0524772 27.7628118,0.989634357 27.873569,1.00144692 C28.0203123,1.01680325 27.9991205,1.09736494 27.9987207,1.16186155 C27.9987207,1.1994255 27.9931228,1.23817071 27.9763293,1.27408091 C27.4205442,2.45746362 27.3741621,3.67344901 27.3145851,4.88848939 C27.3125859,4.9258171 27.3033894,4.96290855 27.2977916,5" id="Fill-20" fill="#99B985"></path>
                        <path d="M28.2433723,3 C27.8817582,2.45945006 28.0011904,1.96100772 28.1081817,1.4630727 C28.1272577,1.37327698 28.1985853,1.28449591 28.2408842,1.19520751 C28.2782067,1.11581186 28.2798655,1.0064843 28.5801047,1.00039645 C28.9807002,0.992025667 29.0138758,1.1180948 28.9964586,1.20028071 C28.8695619,1.77152354 28.7119778,2.34225904 28.5577112,2.91274088 C28.5543936,2.9266922 28.4681371,2.93886789 28.2433723,3" id="Fill-22" fill="#9DBC8A"></path>
                        <path d="M11,32 C9.33681422,32.6802111 7.57684275,33.0891821 6,34 C7.46808619,32.7931398 9.29198716,32.5498681 11,32" id="Fill-24" fill="#A1BF8F"></path>
                        <path d="M4,34 C3.70784652,34.3023472 3.39261292,34.5893688 3.2231639,34.9295567 C3.20329746,34.9692894 3.1647332,35.0205636 3.07416563,34.9914262 C3.00258802,34.968911 2.99090188,34.9208533 3.00550956,34.8743093 C3.0467032,34.7397856 3.13843939,34.6177494 3.24712049,34.5023352 C3.43877317,34.2995091 3.65788828,34.1118193 4,34" id="Fill-26" fill="#A4C092"></path>
                        <path d="M32,32.0452815 C31.716517,32.2870282 31.4225258,32.4924991 31.1746274,32.756399 C29.9231945,34.0900213 28.8826423,35.630776 27.9493217,37.2706662 C27.6252388,37.8402803 27.3274264,38.4298322 27,39 C27.0640046,38.4993378 27.2784677,38.0706735 27.4934085,37.6469936 C28.4131162,35.8340316 29.5085976,34.1797418 30.8357375,32.7386765 C31.0740829,32.479761 31.3489683,32.2789977 31.6326901,32.0954031 C31.7377723,32.0275589 31.8478697,31.9480843 32,32.0452815" id="Fill-28" fill="#9ABA86"></path>
                        <path d="M30,36 C30.3980941,34.799725 30.9403627,33.7183776 32,33 C31.3154012,34.0270394 30.6578543,35.0135197 30,36" id="Fill-30" fill="#A0BE8E"></path>
                        <path d="M46,42 C47.8615094,43.3554769 52.3942082,51.0891517 51.9724543,52 C51.921104,51.9984936 51.9135597,51.9550601 51.9052852,51.9189074 C51.6207899,50.7015139 51.0371973,49.631242 50.4166131,48.568753 C49.3565091,46.754086 48.2659844,44.9625166 47.0014527,43.2894479 C46.6738815,42.855615 46.2740305,42.4817855 46,42" id="Fill-32" fill="#9CBB8A"></path>
                        <path d="M48,44 C48.8021474,44.9084962 49.6155558,45.8138934 50,47 C49.4311903,45.9365585 48.6389944,45.021348 48,44" id="Fill-34" fill="#A6C295"></path>
                        <path d="M49.0945757,51 C49.4055581,51.5750142 49.7173582,52.1497781 49.968379,52.7505654 C50.0013579,52.8298863 50.0348818,52.9462403 49.9220451,52.9885281 C49.7830433,53.0400742 49.7740491,52.9054539 49.7413428,52.8318881 C49.5412892,52.3809849 49.2807291,51.952852 49.1291899,51.4834323 C49.0806755,51.3335483 49.0430633,51.1809118 49,51.0292762 C49.0316161,51.0195175 49.0632322,51.0097587 49.0945757,51" id="Fill-36" fill="#9EBC8B"></path>
                        <path d="M51,53 C50.6002443,52.7116502 49.956991,50.7471814 50.0022672,50 C50.3470841,50.9938504 50.6515941,52.0078579 51,53" id="Fill-38" fill="#A3C092"></path>
                    </g>
                </g>
            </g>
        </g>
    </g>
</svg>