<?xml version="1.0" encoding="UTF-8"?>
<svg viewBox="0 0 125 126" version="1.1" xmlns="http://www.w3.org/2000/svg" xmlns:xlink="http://www.w3.org/1999/xlink">
    <!-- Generator: Sketch 53.2 (72643) - https://sketchapp.com -->
    <title>jasmine—logo1 (2)</title>
    <desc>Created with Sketch.</desc>
    <g id="Page-2" stroke="none" stroke-width="1" fill="none" fill-rule="evenodd">
        <g id="Header" transform="translate(-44.000000, -6.000000)">
            <g id="jasmine—logo1-(2)" transform="translate(44.000000, 6.000000)">
                <path d="M62.4980369,125.079407 C28.0621394,125.077804 0.11943109,97.1142628 0.130649038,62.6543269 C0.141065705,28.1923878 28.1030048,0.197195513 62.6863381,0.275721154 C97.094992,0.353846154 125.054928,28.3121795 124.932332,62.9143429 C124.810937,97.2308494 96.9595753,125.083413 62.4980369,125.079407" id="Fill-4" fill="#96B782"></path>
                <path d="M70.2181891,66.9119391 C71.6104167,66.8846955 72.8732372,66.9163462 74.1008013,67.3770833 C75.2077724,67.7929487 76.3516026,68.0978365 77.5002404,68.3899038 C78.1717147,68.5609776 78.8451923,68.7588942 79.4918269,69.0597756 C80.1040064,69.3438301 80.7995192,69.5441506 81.4705929,69.5862179 C83.4141026,69.7080128 85.3540064,69.7801282 87.3027244,69.4483974 C88.9665865,69.1651442 90.6552885,69.0313301 92.355609,68.991266 C93.6873397,68.9604167 94.9826122,68.5934295 96.2302083,68.0297276 C97.2390224,67.5737981 98.2858974,67.1755609 99.3732372,66.8891026 C100.266266,66.6539263 101.088782,66.1983974 101.825561,65.6178686 C103.596795,64.221234 105.407292,62.8786859 106.911298,61.1659455 C107.711779,60.2540865 108.221394,59.1959936 108.738221,58.1362981 C109.14367,57.3049679 109.517869,56.4512019 109.784696,55.5581731 C110.048317,54.674359 110.141667,53.7981571 109.66851,52.9524038 C109.564343,52.7657051 109.615224,52.689984 109.766667,52.5669872 C110.58758,51.8991186 110.670112,50.5169071 110.003846,49.6935897 C109.371234,48.9127404 108.759054,48.1134615 108.060737,47.3915064 C107.470593,46.7817308 106.783494,46.2841346 106.028686,45.881891 C105.088381,45.3814904 104.041907,45.2188301 103.041506,44.908734 C101.67492,44.4848558 100.237821,44.3410256 98.8916667,43.8354167 C98.2963141,43.611859 97.6556891,43.7140224 97.0391026,43.6499199 C95.7534455,43.5165064 94.4505609,43.4159455 93.1629006,43.4752404 C91.8123397,43.5377404 90.4489583,43.7008013 89.1572917,44.1491186 C87.7370192,44.6419071 86.3123397,45.1246795 84.9177083,45.6931891 C84.0935897,46.0293269 83.3524038,46.5076923 82.6260417,46.9956731 C80.4581731,48.4516026 78.4084936,50.0581731 76.4645833,51.8109776 C75.1164263,53.0269231 73.6360577,54.0974359 72.1380609,55.2941506 C72.2077724,54.7516827 72.5110577,54.4151442 72.6292468,54.0048878 C72.9032853,53.0557692 73.3051282,52.147516 73.4818109,51.163141 C73.5527244,50.7669071 73.8411859,50.4151442 73.9778045,50.0241186 C74.4553686,48.6543269 74.9341346,47.2885417 75.3375801,45.8891026 C75.8043269,44.2697115 76.1244391,42.631891 76.4112981,40.9844551 C76.8720353,38.3354167 76.7738782,35.6923878 76.4866186,33.0133013 C76.2682692,30.9752404 75.636859,29.0794071 75.0911859,27.1515224 C74.5859776,25.3682692 73.6544872,23.8402244 72.0094551,22.7753205 C70.9157051,22.0677885 70.0106571,21.0826122 69.1252404,20.1150641 C68.0975962,18.991266 66.8576122,18.2044071 65.4469551,17.6651442 C65.1845353,17.564984 64.9036859,17.5541667 64.6396635,17.5994391 C63.9008814,17.7252404 63.3035256,17.4191506 62.7049679,17.0553686 C61.3115385,16.2088141 59.8696314,16.0377404 58.3820513,16.8109776 C58.1376603,16.9379808 57.8896635,16.9704327 57.6416667,16.866266 C57.2883013,16.7180288 56.928125,16.5729968 56.6008013,16.3770833 C55.3163462,15.6078526 53.9221154,16.0345353 53.3119391,17.4115385 C53.0595353,17.98125 52.7955128,18.5453526 52.6192308,19.1487179 C52.2169872,20.522516 51.1252404,21.1711538 49.8888622,21.616266 C49.0362981,21.9231571 48.1332532,22.1927885 47.6036058,22.95 C47.0947917,23.6759615 46.6008013,24.4435897 46.2899038,25.2853365 C45.8748397,26.4095353 45.2502404,27.4459936 44.9725962,28.6298878 C44.7698718,29.4944712 44.6905449,30.3678686 44.6641026,31.2428686 C44.621234,32.6519231 44.6216346,34.0633814 44.6520833,35.4728365 C44.6869391,37.1082532 44.9713942,38.715625 45.3351763,40.3065705 C45.7197917,41.9900641 46.078766,43.6823718 46.6020032,45.3286058 C47.6020032,48.4732372 48.7919071,51.5453526 50.3235577,54.6258814 C50.0234776,54.4904647 49.8199519,54.3999199 49.6180288,54.3061699 C48.3247596,53.7064103 47.0178686,53.1487179 45.5983974,52.9107372 C44.6520833,52.7520833 43.6925481,52.7184295 42.7418269,52.5986378 C42.0022436,52.5056891 41.2474359,52.4648237 40.5014423,52.4175481 C38.9205128,52.3169872 37.3367788,52.4247596 35.7610577,52.6142628 C33.4754006,52.8895032 31.2129808,53.3105769 28.9557692,53.7460737 C27.4513622,54.0365385 25.9673878,54.4359776 24.4914263,54.8678686 C22.4898237,55.4532051 20.6012019,56.3270032 18.652484,57.04375 C17.6689103,57.4055288 16.9401442,58.2116186 16.2822917,59.0265224 C15.7181891,59.725641 15.2770833,60.496875 14.9185096,61.3314103 C14.4309295,62.4664263 13.6576923,63.4047276 12.6448718,64.1326923 C12.1885417,64.4604167 11.7638622,64.8245994 11.4100962,65.2653045 C11.2157853,65.506891 11.0487179,65.7733173 11.0334936,66.0826122 C11.0022436,66.7400641 10.6969551,67.2777244 10.3359776,67.7905449 C9.89246795,68.4219551 9.80152244,69.0517628 10.1532853,69.7709135 C10.5102564,70.5012821 10.4229167,71.3081731 10.375641,72.0878205 C10.3524038,72.4636218 10.3680288,72.8326122 10.4601763,73.1803686 C10.7850962,74.4095353 11.1805288,74.5645833 12.4108974,74.5421474 C13.0014423,74.5313301 13.5723558,74.3358173 14.0755609,73.9852564 C14.2951122,73.8322115 14.5415064,73.7180288 14.7967147,73.5737981 C14.9249199,73.9728365 14.6797276,74.1887821 14.4782051,74.3999199 C14.1108173,74.7841346 13.7846955,75.1995994 13.5046474,75.6479167 C13.1761218,76.1735577 13.2770833,76.4688301 13.7854968,76.8077724 C14.3291667,77.1707532 14.8856571,77.5233173 15.3588141,77.98125 C15.8479968,78.4548077 16.5086538,78.5201122 17.1108173,78.7140224 C17.4950321,78.8378205 17.8832532,78.9467949 18.2065705,79.1875801 C18.9601763,79.7488782 19.8351763,79.8999199 20.735016,79.9796474 C20.9261218,79.9960737 21.1224359,79.975641 21.2951122,80.0822115 C22.2229968,80.6507212 23.2782853,80.7024038 24.3095353,80.7444712 C25.7614583,80.8033654 27.2141827,80.830609 28.6600962,80.5145032 C29.449359,80.3418269 30.2943109,80.5521635 31.0971955,80.3702724 C31.7025641,80.2332532 32.3191506,80.3710737 32.9365385,80.1547276 C33.7133814,79.8826923 34.5326923,79.7176282 35.3183494,79.4524038 C35.3900641,79.4283654 35.4677885,79.4211538 35.5535256,79.4043269 C35.5603365,79.5982372 35.4313301,79.6871795 35.3407853,79.7817308 C33.5851763,81.60625 31.9309295,83.5217147 30.3447917,85.4924679 C29.3123397,86.7753205 28.2666667,88.0509615 27.4249199,89.4808494 C26.7686699,90.5966346 25.9689904,91.6302885 25.6024038,92.9011218 C25.0995994,94.6427083 25.0811699,96.3638622 25.7490385,98.075 C26.0891827,98.9463942 26.1392628,99.8145833 25.8199519,100.734856 C25.4798077,101.713622 25.1268429,102.697596 24.9762019,103.734054 C24.8880609,104.340224 24.8948718,104.950401 24.9465545,105.555769 C24.9826122,105.976042 25.1741186,106.344631 25.4958333,106.646715 C26.0066506,107.126683 26.3716346,107.120673 26.8207532,106.564583 C27.0515224,106.278526 27.2943109,106.010897 27.6,105.774119 C27.9133013,106.258093 27.8944712,106.804167 28.000641,107.312981 C28.2221955,108.371474 29.1452724,108.71883 29.9361378,107.966026 C30.5158654,107.413542 31.1288462,107.263301 31.8908654,107.3875 C32.7939103,107.534135 33.7113782,107.501683 34.6244391,107.491667 C35.0358974,107.48726 35.4289263,107.35625 35.7646635,107.151923 C36.6180288,106.633494 37.6076122,106.695593 38.5210737,106.441587 C38.7346154,106.381891 38.9701923,106.371474 39.1649038,106.264103 C40.5947917,105.476843 41.9958333,104.645513 43.2318109,103.563782 C43.9725962,102.915946 44.8427885,102.465625 45.7053686,102.010897 C46.7221955,101.47524 47.6653045,100.835417 48.3347756,99.8951122 C49.1252404,98.7841346 49.9958333,97.7384615 50.8203526,96.6555288 C51.9457532,95.1771635 52.8407853,93.5369391 54.0563301,92.1230769 C55.1564904,90.8442308 56.0903846,89.4479968 56.9213141,87.9808494 C57.0222756,87.8025641 57.1476763,87.6379006 57.2971154,87.4135417 C57.4942308,88.0289263 57.7085737,88.5774038 57.8447917,89.1443109 C58.3055288,91.0657853 59.2842949,92.7228365 60.3904647,94.3258013 C60.8536058,94.9976763 61.2510417,95.7112179 61.5611378,96.4732372 C61.7394231,96.9119391 61.8459936,97.3686699 61.8379808,97.8278045 C61.8111378,99.3322115 62.011859,100.832612 61.8916667,102.339824 C61.8467949,102.900721 61.6985577,103.403526 61.4153045,103.877083 C61.2594551,104.138301 61.1356571,104.417548 60.9878205,104.679968 C60.4926282,105.560176 59.7205929,106.080208 58.7117788,106.147115 C57.1805288,106.248878 55.6953526,105.916747 54.2001603,105.627885 C52.797516,105.357051 51.3495994,105.200401 50.0138622,105.891106 C48.8231571,106.506891 47.6140224,107.125881 46.6981571,108.152724 C45.9894231,108.947196 45.1689103,109.621074 44.3127404,110.234054 C43.4253205,110.869872 42.3423878,111.044952 41.2826923,111.220833 C39.1216346,111.580208 36.9345353,111.84383 35.0771635,113.176763 C34.500641,113.590224 34.00625,114.091026 33.4838141,114.561779 C33.2678686,114.75609 33.2189904,115.00008 33.4056891,115.248478 C33.5831731,115.484455 33.8351763,115.5125 34.0407051,115.340224 C35.053125,114.492468 36.1669071,114.822196 37.2362179,115.101442 C38.1160256,115.33101 38.9389423,115.75649 39.7145833,116.242468 C41.7738782,117.532532 44.0326923,118.243269 46.4269231,118.534936 C48.5338942,118.791747 50.6236378,118.699599 52.6020032,117.851843 C53.5391026,117.450401 54.3860577,116.858253 55.2470353,116.306971 C56.5767628,115.455208 57.7850962,114.474439 58.7370192,113.189183 C59.4064904,112.285337 59.7842949,111.246074 60.2101763,110.232853 C60.5042468,109.532131 60.7418269,108.798958 60.8447917,108.026122 C60.9373397,107.333013 61.5150641,106.945192 62.0379006,106.409936 C62.0427083,107.019311 62.0959936,107.524519 62.1232372,108.027324 C62.1901442,109.257692 62.2053686,110.490865 62.2346154,111.722837 C62.3111378,114.92476 62.3684295,118.127484 62.4685897,121.329006 C62.4930288,122.097436 62.4886218,122.865865 62.5254808,123.633093 C62.5423077,123.988061 62.4637821,124.136699 62.0579327,124.128285 C60.0086538,124.085016 57.9657853,123.96883 55.9261218,123.760497 C52.2410256,123.384696 48.6260417,122.661138 45.0791667,121.608253 C38.6268429,119.69359 32.646875,116.793349 27.1432692,112.916747 C23.7530449,110.528526 20.6404647,107.818189 17.7999199,104.80016 C12.2001603,98.8494391 7.94935897,92.0513622 5.04391026,84.4123397 C3.59559295,80.6046474 2.54871795,76.6879808 1.89206731,72.6703526 C1.52067308,70.397516 1.27948718,68.1078526 1.16891026,65.803766 C1.10320513,64.4423878 1.07435897,63.0822115 1.09599359,61.721234 C1.18573718,56.0609776 2.01706731,50.5112981 3.64206731,45.0862179 C5.86762821,37.6575321 9.36682692,30.8802885 14.1576923,24.7845353 C18.9605769,18.6739583 24.7073718,13.6294872 31.4120994,9.68557692 C37.339984,6.19879808 43.6785256,3.77972756 50.4165064,2.42115385 C52.9249199,1.91554487 55.4589744,1.57700321 58.016266,1.40352564 C59.9353365,1.27331731 61.8544071,1.19919872 63.7766827,1.24286859 C69.4673878,1.371875 75.0415064,2.23285256 80.4898237,3.90192308 C87.7650641,6.12988782 94.4052885,9.57940705 100.386859,14.2741186 C107.009455,19.4724359 112.370032,25.7580929 116.426122,33.1439103 C119.436138,38.6246795 121.555529,44.434375 122.788301,50.5621795 C123.293109,53.0709936 123.622837,55.6058494 123.805929,58.1615385 C123.947756,60.1451122 124.014663,62.1282853 123.96258,64.1138622 C123.816346,69.7384615 122.957372,75.2484776 121.307131,80.6342949 C119.077564,87.9095353 115.626843,94.5485577 110.934135,100.532131 C106.128045,106.660337 100.369631,111.716026 93.6504808,115.667949 C87.7225962,119.154728 81.3840545,121.573397 74.6460737,122.931971 C72.1380609,123.437179 69.6052083,123.798157 67.0459135,123.942788 C66.1885417,123.991266 66.1625,123.998478 66.2045673,123.120272 C66.3536058,120.014503 66.1777244,116.905128 66.3083333,113.801362 C66.3672276,112.407933 66.3684295,111.016506 66.3928686,109.532933 C66.7999199,110.010897 66.9970353,110.533734 67.2558494,111.005689 C68.0971955,112.536939 69.4044872,113.302965 71.1008013,113.419551 C71.8139423,113.46883 72.5370994,113.371474 73.2466346,113.252885 C74.0166667,113.123878 74.7887019,113.028526 75.5515224,112.820192 C77.0799679,112.402724 78.2899038,111.458013 79.5491186,110.582612 C80.1857372,110.140304 80.8956731,109.845433 81.6204327,109.596234 C82.1981571,109.397115 82.7518429,109.168349 83.2826923,108.859856 C84.0443109,108.417147 84.8491987,108.099439 85.7338141,107.928365 C86.9954327,107.684776 88.0827724,107.043349 89.0795673,106.115064 C88.5330929,105.97524 88.0407051,106.085817 87.5595353,105.98726 C85.9882212,105.664744 84.5775641,104.933574 83.1180288,104.322196 C81.4185096,103.610657 79.8095353,102.710817 78.1464744,101.922756 C77.7526442,101.735657 77.3351763,101.627885 76.8960737,101.621474 C76.6673077,101.618269 76.4453526,101.564984 76.246234,101.466426 C75.3043269,101.000481 74.2850962,100.765705 73.2778846,100.53133 C71.7009615,100.164744 70.1604968,100.158734 68.9104968,101.449199 C68.7221955,101.64351 68.4589744,101.741266 68.2494391,101.920753 C67.3720353,102.671955 66.8724359,103.636699 66.610016,104.736458 C66.5383013,105.036939 66.3696314,105.276122 66.2298077,105.545353 C66.2266026,103.784535 66.1140224,102.033333 66.2578526,100.279728 C66.3508013,99.1479167 66.4205128,98.0141026 66.6288462,96.8971154 C66.8768429,95.5673878 67.4373397,94.3374199 67.9080929,93.0798077 C68.3628205,91.8658654 68.824359,90.6539263 69.2698718,89.4363782 C69.6496795,88.397516 69.8864583,87.3185897 70.1284455,86.2420673 C70.1620994,86.0926282 70.2109776,85.9459936 70.2510417,85.8049679 C70.4000801,85.8117788 70.4441506,85.9091346 70.4926282,85.9860577 C71.6657051,87.8642628 73.2358173,89.4512019 74.4205128,91.3201923 C75.5186699,93.0533654 76.7157853,94.7132212 77.9613782,96.3434295 C79.5070513,98.3658654 81.4445513,99.9463942 83.4441506,101.479647 C84.5675481,102.341426 85.7963141,102.814183 87.1989583,102.865465 C87.3103365,102.869471 87.4245192,102.863462 87.5342949,102.843429 C88.3183494,102.702404 89.0290865,102.773317 89.7109776,103.282532 C90.5322917,103.895513 91.4257212,103.922356 92.2979167,103.311779 C92.5178686,103.157933 92.703766,102.981651 92.7241987,102.705208 C92.8007212,101.658333 93.1480769,100.68117 93.4625801,99.6919872 C93.5403045,99.4471955 93.6625,99.3594551 93.8888622,99.3237981 C95.3051282,99.1026442 96.0863782,98.2869391 96.2850962,96.8558494 C96.4762019,95.4800481 96.6372596,94.1046474 96.7418269,92.7168269 C96.9818109,89.5197115 96.2826923,86.6158654 94.4637821,83.9467949 C93.5234776,82.5673878 92.5387019,81.23125 91.4794071,79.9459936 C90.3315705,78.5533654 88.9253205,77.434375 87.5266827,76.3169872 C85.9766026,75.0786058 84.4004808,73.8602564 82.6741186,72.8766827 C81.3976763,72.1503205 80.1148237,71.4323718 78.7971154,70.772516 C77.1669071,69.9564103 75.4854167,69.2372596 73.9165064,68.2953526 C73.1436699,67.8310096 72.271875,67.5930288 71.3960737,67.3870994 C71.0238782,67.2997596 70.6488782,67.2116186 70.2181891,66.9119391" id="Fill-6" fill="#FDFDFD"></path>
                <path d="M62.2953526,62.429367 C61.9035256,62.5547676 61.7032051,62.3492388 61.5341346,62.1036458 C60.9423878,61.2478766 60.7124199,60.267508 60.6166667,59.2570913 C60.3642628,56.5916266 60.340625,53.9165465 60.3089744,51.241867 C60.3021635,50.6917869 60.2512821,50.1417067 60.2180288,49.5435497 C60.0129006,49.7246394 60.0341346,49.9085337 60.0317308,50.0784054 C59.9892628,53.0575721 59.9495994,56.0379407 60.2260417,59.0094952 C60.3318109,60.1445112 60.5501603,61.2602965 61.2344551,62.2222356 C61.2945513,62.3071715 61.41875,62.4097356 61.3278045,62.5143029 C61.2384615,62.6176683 61.0926282,62.7178285 60.9451923,62.6589343 C60.6683494,62.5491587 60.3838942,62.465024 60.1987981,62.1777644 C59.7228365,61.439383 59.549359,60.6104567 59.4628205,59.7659054 C59.3237981,58.4041266 59.2344551,57.0375401 59.1230769,55.6577324 C59.0189103,55.7683093 59.0016827,55.8985176 59.0004808,56.0203125 C58.9836538,57.7166266 58.9279647,59.4185497 59.3610577,61.080008 C59.5509615,61.8091747 59.8013622,62.5215144 60.5221154,62.9277644 C60.4063301,63.0503606 60.2825321,63.0475561 60.1266827,63.0050881 C57.9027244,62.3973157 56.0453526,61.2879407 54.5986378,59.4217548 C52.6403045,56.8953125 51.0497596,54.183774 49.8109776,51.2414663 C48.8594551,48.981851 47.9796474,46.6985978 47.3197917,44.3404247 C46.5790064,41.6925881 45.8137821,39.0291266 45.6591346,36.2755208 C45.5297276,33.980649 45.4135417,31.6553285 45.8057692,29.3736779 C46.10625,27.6280849 46.9299679,26.0527644 47.7925481,24.5143029 C48.1102564,23.9473958 48.3410256,23.3151843 48.9956731,23.0078926 C49.2861378,22.871274 49.5798077,22.7498798 49.8794872,22.6364984 C50.939984,22.236258 51.9772436,21.7919471 52.7733173,20.9273638 C52.5541667,24.6601362 52.9075321,29.9934696 54.1302885,32.0904247 C54.1931891,31.757492 54.0834135,31.5078926 54.0253205,31.2719151 C53.5233173,29.2434696 53.2969551,27.184976 53.1975962,25.0992388 C53.1270833,23.6252804 53.0289263,22.1565304 53.2176282,20.6889824 C53.3650641,19.5471554 53.7953526,18.4902644 54.3650641,17.5014824 C54.715625,16.8929087 55.4119391,16.7923478 56.0309295,17.1461138 C56.6266827,17.4858574 57.2180288,17.8500401 57.9371795,17.8804888 C58.2348558,17.8929087 58.5036859,17.8252003 58.7649038,17.6821715 C59.9339744,17.0403446 61.0770032,17.1901843 62.1799679,17.8440304 C62.8342147,18.231851 63.4800481,18.6144631 64.2797276,18.5523638 C65.5689904,18.4526042 66.5729968,19.1288862 67.4676282,19.8852965 C68.6375,20.8732772 69.6887821,22.0014824 70.7905449,23.0703926 C71.1266827,23.3965144 71.5241186,23.6401042 71.908734,23.8989183 C72.5762019,24.3476362 73.1314904,24.9101362 73.4363782,25.6505208 C74.4407853,28.0932292 75.3582532,30.5591747 75.5217147,33.2422676 C75.5717949,34.0667869 75.7452724,34.886899 75.7997596,35.7166266 C75.8983173,37.2210337 75.7961538,38.7118189 75.5846154,40.2046074 C75.3846955,41.6144631 75.1583333,43.028726 74.7817308,44.3889022 C74.4896635,45.4421875 74.1955929,46.5082933 73.8794872,47.5591747 C73.4512019,48.9838542 72.6835737,50.2683093 72.3678686,51.7426683 C72.1326923,52.8392228 71.7028045,53.9117388 71.178766,54.923758 C70.944391,55.3760817 70.4359776,55.6501202 70.3137821,56.1749599 C70.1395032,56.9205529 69.5397436,57.2450721 68.9804487,57.6465144 C67.471234,58.7294471 66.0661859,59.9429888 64.7084135,61.2090144 C64.2693109,61.6188702 63.9620192,62.1276843 63.8682692,62.7410657 C63.8498397,62.8608574 63.8630609,63.0299279 63.6811699,63.0187099 C63.5008814,63.0070913 63.4123397,62.8929087 63.4051282,62.6953926 C63.3842949,62.1356971 63.3386218,61.5768029 63.314984,61.0171074 C63.2616987,59.7538862 63.3510417,58.486258 63.1723558,57.1340946 C62.9251603,57.6200721 63.0129006,58.0824119 62.9479968,58.5102965 C62.8786859,58.9654247 62.9103365,59.4373798 62.9115385,59.9017228 C62.9123397,60.3664663 62.8983173,60.8344151 62.9495994,61.294351 C63.0012821,61.7534856 62.9684295,62.2194311 63.1178686,62.689383 C62.7845353,62.689383 62.6403045,62.5351362 62.533734,62.2739183 C61.9800481,60.923758 61.7252404,59.5163061 61.6867788,58.0635817 C61.6246795,55.7102163 61.5585737,53.3572516 61.502484,51.0038862 C61.4864583,50.3424279 61.5000801,49.6805689 61.4760417,49.0147035 C61.2592949,49.5940304 61.2020032,50.2082131 61.1891827,50.8159856 C61.147516,52.8492388 61.1847756,54.8792869 61.3358173,56.9113381 C61.4335737,58.2182292 61.4223558,59.5279247 61.7372596,60.8147837 C61.8714744,61.3632612 62.0810096,61.8776843 62.2953526,62.429367" id="Fill-8" fill="#FEFEFE"></path>
                <path d="M54.9377003,61.2583333 C54.2750401,61.1365385 53.7133413,60.940625 53.1636619,60.7667468 C51.1945112,60.1441506 49.1720753,59.9490385 47.1312099,59.7519231 C45.4841747,59.5924679 43.9252804,59.9338141 42.3259215,60.1441506 C39.6516426,60.4959135 37.0683093,61.2334936 34.4477163,61.8140224 C34.078726,61.8953526 33.7077324,61.9927083 33.3383413,62.2150641 C33.483774,62.3172276 33.5939503,62.2611378 33.7069311,62.2379006 C35.9925881,61.7623397 38.2690304,61.2298878 40.5687099,60.8372596 C41.9709535,60.5980769 43.3679888,60.3216346 44.7766426,60.1201122 C45.8343349,59.9690705 46.8868189,60.1393429 47.9385016,60.2198718 C48.5286458,60.2651442 49.1195913,60.2383013 49.7105369,60.3272436 C51.4705529,60.5924679 53.1680689,61.102484 54.8723958,61.5880609 C55.2798478,61.7042468 55.6432292,61.925 55.9713542,62.1689904 C56.8723958,62.8408654 57.9148638,63.2074519 58.9344952,63.628125 C59.1596554,63.7206731 59.4148638,63.747516 59.2782452,64.1104968 C59.1484375,64.4570513 58.9449119,64.3633013 58.7105369,64.2611378 C56.0038061,63.0804487 53.1684696,62.8052083 50.2538061,63.0355769 C48.0739183,63.2078526 45.9753606,63.7639423 43.8086939,64.2783654 C44.1416266,64.4033654 44.2690304,64.4097756 45.0354567,64.2815705 C46.8483574,63.9786859 48.655649,63.6084936 50.4909856,63.4919071 C52.7373798,63.3492788 54.9721554,63.4846955 57.1388221,64.1673878 C57.6708734,64.3352564 58.2277644,64.4334135 58.7309696,64.6958333 C58.8471554,64.7563301 59.0034054,64.784375 58.9453125,64.9494391 C58.8723958,65.1581731 58.7229567,64.9927083 58.6276042,64.9650641 C56.9973958,64.4891026 55.3263221,64.5916667 53.6664663,64.6477564 C52.6604567,64.6818109 51.6528446,64.6641827 50.6460337,64.7691506 C48.3435497,65.008734 46.0883413,65.4229968 43.9517228,66.3500801 C43.7814503,66.4241987 43.5903446,66.4798878 43.4513221,66.6661859 C43.6003606,66.7507212 43.7249599,66.6846154 43.8527644,66.6509615 C45.3671875,66.2523237 46.864383,65.7947917 48.4192708,65.5435897 C50.4004407,65.2234776 52.3880208,65.0764423 54.391226,65.0780449 C55.7826522,65.0788462 57.176883,65.0095353 58.5586939,65.2407051 C58.6596554,65.2575321 58.8479567,65.1317308 58.8603766,65.352484 C58.8695913,65.5223558 58.6973157,65.5171474 58.5879407,65.5724359 C57.8976362,65.9197917 57.1484375,65.9891026 56.3960337,66.0267628 C55.6608574,66.0640224 54.9252804,66.0824519 54.2129407,66.3004006 C53.9529247,66.3805288 53.7161458,66.4963141 53.5422676,66.763141 C55.265024,66.2735577 57.1452324,66.8384615 58.7890625,65.8853365 C58.9084535,66.4097756 58.8768029,66.4834936 58.4076522,66.503125 C56.9292869,66.5652244 55.5711138,67.0908654 54.2165465,67.6016827 C52.6464343,68.1934295 51.1444311,68.9526442 49.6227965,69.6545673 C48.5703125,70.1397436 47.5338542,70.6970353 46.5590946,71.3492788 C45.922476,71.7751603 45.233774,72.1249199 44.5671074,72.5007212 C42.3964343,73.7254808 40.3435497,75.1000801 38.5322516,76.8204327 C37.6139824,77.6926282 36.4264824,78.0291667 35.2838542,78.4538462 C34.3691907,78.7935897 33.4180689,79.0115385 32.484976,79.2887821 C31.9172676,79.4574519 31.3315304,79.4434295 30.7766426,79.4526442 C28.9489183,79.4822917 27.1560497,79.9490385 25.3295272,79.8641026 C24.0442708,79.8048077 22.7325721,79.8296474 21.5490785,79.1597756 C21.0883413,78.8989583 20.5386619,79.0676282 20.0386619,78.9410256 C19.5843349,78.8260417 19.1472356,78.6978365 18.7646234,78.4137821 C18.1159856,77.9326122 17.3135016,77.8392628 16.5847356,77.5604167 C15.7802484,77.2519231 15.208133,76.5948718 14.5210337,76.1096955 C14.3695913,76.0027244 14.4897837,75.8805288 14.5695112,75.7827724 C14.8824119,75.3981571 15.213742,75.0275641 15.5102163,74.6301282 C15.8892228,74.1229167 15.9244792,73.5007212 15.6348157,73.055609 C15.3010817,72.5423878 14.9108574,72.4370192 14.3619792,72.7134615 C13.7798478,73.0071314 13.2742388,73.4418269 12.6035657,73.5736378 C11.7938702,73.7326923 11.5142228,73.5752404 11.3571715,72.7875801 C11.2273638,72.1353365 11.3046875,71.477484 11.301883,70.8236378 C11.3002804,70.3008013 11.2397837,69.7995994 11.0046074,69.3320513 C10.8339343,68.993109 10.8804087,68.6966346 11.0843349,68.3861378 C11.5230369,67.7166667 11.9008413,67.0375801 12.0030048,66.2018429 C12.0747196,65.6177083 12.6544471,65.3036058 13.1007612,64.9810897 C14.395633,64.044391 15.3311298,62.8440705 15.9457131,61.3745192 C16.5314503,59.9734776 17.5130208,58.8825321 18.7582131,58.0479968 C19.3259215,57.6677885 20.0350561,57.555609 20.6684696,57.2847756 C22.6103766,56.4538462 24.6011619,55.7459135 26.6528446,55.2419071 C29.7590144,54.4790865 32.9060497,53.9205929 36.0819311,53.544391 C37.8772035,53.3320513 39.6732772,53.2711538 41.4873798,53.4903045 C42.4320913,53.6044872 43.3932292,53.6926282 44.3495593,53.7314904 C45.1897035,53.7659455 46.0094151,53.8989583 46.7926683,54.1790064 C47.7702324,54.5283654 48.7489984,54.8857372 49.6684696,55.3773237 C49.8211138,55.4590545 49.952524,55.5808494 50.0907452,55.6878205 C51.6023638,56.8532853 52.6736779,58.4041667 53.8026843,59.9069712 C54.1368189,60.3516827 54.5178285,60.7611378 54.9377003,61.2583333" id="Fill-10" fill="#FEFEFE"></path>
                <path d="M26.961859,99.0122997 C26.8977564,98.4021234 26.6770032,97.8320112 26.4967147,97.2526843 C25.8020032,95.0219151 26.3148237,93.0062901 27.5195513,91.0832131 C28.5067308,89.5070913 29.5528045,87.9758413 30.7238782,86.5319311 C32.3072115,84.5788061 33.9586538,82.6853766 35.6505609,80.8247997 C37.2306891,79.0864183 39.0211538,77.5808093 40.8252404,76.1028446 C42.6209135,74.6316907 44.6641827,73.5094952 46.6890224,72.3684696 C48.3340545,71.4417869 49.9602564,70.4914663 51.7078526,69.7622997 C53.0331731,69.2094151 54.2839744,68.4658253 55.6701923,68.0752003 C56.6469551,67.8003606 57.6161058,67.4530048 58.6481571,67.4001202 C59.1894231,67.372476 59.1886218,67.3616587 59.7106571,67.939383 C59.3552885,68.0671875 59.0103365,68.179367 58.6741987,68.3147837 C57.794391,68.6689503 57.0964744,69.2859375 56.4157853,69.919351 C54.6766026,71.5371394 53.1317308,73.3368189 51.5780449,75.1272837 C51.4674679,75.2546875 51.388141,75.4093349 51.2298878,75.6493189 C51.6012821,75.5179087 51.784375,75.3187901 51.9646635,75.1336939 C53.1397436,73.9305689 54.3032051,72.715024 55.4786859,71.511899 C56.1725962,70.8011619 56.883734,70.1092548 57.6577724,69.4826522 C58.2783654,68.980649 58.9943109,68.6785657 59.7254808,68.3832933 C60.352484,68.1300881 60.9189904,68.4558093 61.5135417,68.4814503 C61.7679487,68.4922676 61.5644231,68.7102163 61.508734,68.7999599 C61.0776442,69.4966747 60.7038462,70.2202324 60.4342147,70.9954728 C60.3833333,71.142508 60.2815705,71.2823317 60.3600962,71.4850561 C60.6617788,71.3051683 60.7334936,70.9774439 60.8809295,70.716226 C61.2266827,70.1032452 61.5415865,69.4722356 61.8709135,68.8500401 C61.9338141,68.7310497 61.9614583,68.5034856 62.1373397,68.5784054 C62.3564904,68.6713542 62.1229167,68.8095753 62.0932692,68.9233574 C62.0363782,69.1385016 61.9426282,69.3436298 61.8797276,69.5575721 C61.8669071,69.6028446 61.9061699,69.6917869 61.9482372,69.7194311 C62.0383814,69.7791266 62.0904647,69.6985978 62.1301282,69.6288862 C62.1621795,69.5735978 62.2030449,69.5163061 62.2110577,69.4558093 C62.3188301,68.6965946 62.9169872,68.4257612 63.5067308,68.1457131 C63.6185096,68.0928285 63.7987981,67.996274 63.7715545,68.2226362 C63.6609776,69.1328926 63.9670673,70.033133 63.8092147,70.9429888 C63.7010417,71.5663862 63.4426282,72.1385016 63.1846154,72.700601 C62.1974359,74.8528446 61.3200321,77.0519631 60.3088141,79.1953926 C59.1137019,81.7294471 57.89375,84.2494792 56.5716346,86.7190304 C55.388141,88.9309696 53.8532853,90.903726 52.2955929,92.8588542 C51.4370192,93.9365785 50.8064103,95.1713542 49.9418269,96.2498798 C49.0816506,97.3235978 48.2322917,98.4073317 47.4254006,99.5247196 C46.9838942,100.136899 46.3400641,100.585617 45.6838141,100.939784 C44.9370192,101.342428 44.2098558,101.777123 43.4754808,102.200601 C43.2815705,102.31238 43.0644231,102.410938 42.9165865,102.570393 C42.2194712,103.319591 41.3288462,103.811979 40.5115385,104.396114 C39.3364583,105.236258 38.0127404,105.729046 36.5604167,105.830008 C36.3637019,105.843229 36.1721955,105.86887 36.0103365,105.977444 C34.7411058,106.829607 33.3392628,106.589223 31.9650641,106.436178 C31.0203526,106.33121 30.1549679,106.358053 29.4638622,107.117268 C29.3576923,107.233854 29.2330929,107.39371 29.0664263,107.336819 C28.9009615,107.280329 28.9125801,107.071995 28.8917468,106.922155 C28.7835737,106.138101 28.6008814,105.389303 28.1245192,104.728646 C27.9510417,104.488261 28.0019231,104.171755 28.0844551,103.889303 C28.2234776,103.411739 28.4217949,102.960216 28.649359,102.515905 C29.8560897,100.163341 31.1317308,97.851242 32.5760417,95.6340946 C32.6309295,95.5495593 32.7306891,95.465024 32.6589744,95.2915465 C32.1137019,95.8844952 31.6970353,96.5423478 31.2615385,97.1829728 C29.9538462,99.1080529 28.8909455,101.172155 27.8592949,103.252684 C27.8168269,103.338421 27.753125,103.433373 27.7591346,103.520313 C27.8360577,104.642107 26.8380609,105.031931 26.2691506,105.709816 C26.0147436,106.013502 25.9638622,105.695793 25.9137821,105.538742 C25.7046474,104.8873 25.821234,104.227845 25.9742788,103.596034 C26.2154647,102.602444 26.5351763,101.627684 26.8200321,100.644511 C26.8733173,100.461018 26.9181891,100.274319 26.9666667,100.089223 C26.9650641,98.9970753 27.5732372,98.1320913 28.0548077,97.2258413 C28.3957532,96.5840144 28.7979968,95.9750401 29.1697917,95.3492388 C28.9586538,95.7270433 28.7226763,96.090024 28.4947115,96.4570112 C28.0315705,97.2034054 27.6233173,97.9786458 27.2495192,98.7727163 C27.1914263,98.8965144 27.1685897,99.0655849 26.961859,99.0122997" id="Fill-12" fill="#FEFEFE"></path>
                <path d="M90.5969151,54.9672276 C91.4034054,54.7869391 92.1778446,54.5365385 92.9350561,54.2492788 C95.7920272,53.1663462 98.7888221,52.6206731 101.750761,51.9467949 C102.553646,51.7645032 103.405008,51.7484776 104.234335,51.7436699 C105.030008,51.7392628 105.816066,51.5561699 106.625761,51.7064103 C107.233133,51.8189904 107.785216,52.0637821 108.366947,52.2348558 C108.438662,52.2556891 108.548438,52.288141 108.528405,52.3814904 C108.420232,52.8810897 108.7748,53.225641 108.941466,53.6298878 C109.144992,54.1234776 109.076082,54.6074519 108.928646,55.085016 C108.415425,56.7452724 107.703085,58.3262019 106.780008,59.7901442 C106.245152,60.6379006 105.509575,61.3614583 104.751563,62.0261218 C103.790024,62.8694712 102.76238,63.6375 101.78121,64.4596154 C100.769992,65.3073718 99.6173478,65.8566506 98.3549279,66.2144231 C97.3248798,66.5060897 96.363742,66.9820513 95.3733574,67.3806891 C94.4282452,67.7616987 93.4170272,68.0108974 92.3921875,68.0445513 C90.4442708,68.1086538 88.5155849,68.2969551 86.5889022,68.5990385 C84.9727163,68.8530449 83.322476,68.8410256 81.7046875,68.6671474 C80.9639022,68.5878205 80.1770433,68.3955128 79.4719151,68.0052885 C79.0352163,67.7633013 78.5147837,67.6539263 78.0183894,67.5405449 C76.5969151,67.2168269 75.2315304,66.7040064 73.8320913,66.3129808 C72.0897035,65.8262019 70.3020433,65.7661058 68.5135817,66.1098558 C68.2527644,66.1599359 68.0075721,66.1535256 67.7687901,66.0205128 C67.4951522,65.8682692 67.1874599,65.7933494 66.8865785,65.8498397 C66.2263221,65.9736378 65.5420272,65.8658654 64.8925881,66.0737981 C64.7836138,66.1086538 64.6325721,66.2080128 64.5760817,66.0193109 C64.5260016,65.8526442 64.6233574,65.7592949 64.7936298,65.7152244 C66.8985978,65.1735577 68.9302484,64.3426282 71.1041266,64.0770032 C71.9126202,63.9780449 72.7319311,63.9620192 73.5468349,63.9175481 C73.8172676,63.903125 74.0864984,63.8983173 74.3625401,63.7893429 C71.3200721,63.2268429 68.5111779,64.1166667 65.7026843,65.0457532 C68.6582131,63.0513622 71.7583734,61.3903045 75.3801683,60.788141 C75.0432292,60.6346955 75.0388221,60.6411058 74.6830529,60.6947917 C71.3825721,61.1927885 68.5211939,62.6863782 65.8613381,64.6174679 C65.4983574,64.8810897 65.0804888,64.9471955 64.5961138,65.215625 C64.7535657,64.4059295 65.0332131,63.7625 65.4899439,63.2164263 C66.024399,62.5778045 66.7944311,62.2428686 67.4855369,61.8141827 C69.2679888,60.7088141 71.0360176,59.5717949 73.082492,58.9844551 C73.2551683,58.9351763 73.4743189,58.9640224 73.6001202,58.7733173 C71.8965946,58.6102564 66.1085337,61.674359 64.7647837,63.4664263 C64.7195112,62.8434295 64.9294471,62.3554487 65.3272837,61.9327724 C66.0548478,61.1595353 66.9174279,60.5429487 67.7239183,59.8614583 C69.9366587,57.9904647 72.3609375,56.3947115 74.608133,54.5665865 C75.9126202,53.5052885 77.181851,52.4059295 78.4627003,51.3189904 C80.342508,49.7232372 82.3128606,48.2408654 84.4394631,46.9776442 C84.9270433,46.6875801 85.4506811,46.4892628 85.9743189,46.3005609 C87.5380208,45.7364583 89.0708734,45.0721955 90.7054888,44.7272436 C92.2010817,44.4123397 93.7159054,44.4435897 95.2371394,44.4772436 C96.2788061,44.5004808 97.3060497,44.6415064 98.3397035,44.7176282 C98.9014022,44.7588942 99.4498798,44.9920673 100.000761,45.1515224 C100.260777,45.2272436 100.510777,45.4103365 100.767188,45.4135417 C102.170232,45.4303686 103.434655,46.0273237 104.748758,46.3798878 C105.80605,46.6639423 106.713101,47.3354167 107.46871,48.1851763 C108.084495,48.877484 108.738341,49.54375 109.247556,50.3137821 C109.675441,50.9616186 109.658614,51.6567308 108.991146,51.9315705 C108.846915,51.9908654 108.733934,52.0321314 108.590104,51.9459936 C107.121755,51.0657853 105.515184,51.2637019 103.917829,51.3330128 C101.129768,51.4536058 98.4635016,52.2132212 95.7876202,52.8911058 C94.0664663,53.3270032 92.4322516,54.0549679 90.8028446,54.7661058 C90.7251202,54.7997596 90.6105369,54.8085737 90.5969151,54.9672276" id="Fill-14" fill="#FEFEFE"></path>
                <path d="M64.8224359,67.7965545 C66.0103365,69.5661859 67.118109,71.2432692 68.2539263,72.9015224 C69.3949519,74.5665865 70.0516026,76.4900641 71.0976763,78.2040064 C70.1838141,74.4375801 67.7459135,71.4948718 65.7607372,68.3009615 C66.6253205,68.7176282 67.2030449,69.4367788 67.7935897,70.1435096 C69.0984776,71.7052083 70.3612981,73.2977564 71.4237981,75.0393429 C71.5223558,75.2004006 71.6521635,75.3418269 71.7855769,75.5165064 C71.774359,74.7512821 70.8048077,73.2552885 68.9085737,70.8943109 C67.7499199,69.4512019 66.5776442,68.0413462 64.7775641,67.246875 C65.4694712,66.9075321 68.8188301,68.5149038 70.3677083,69.8522436 C71.940625,71.210016 73.3492788,72.7188301 74.4217949,74.5293269 C74.4834936,74.465625 74.5451923,74.4023237 74.6064904,74.3386218 C72.6145032,70.7905449 69.7735577,68.2268429 65.8240385,66.9696314 C67.1345353,66.5497596 68.2911859,67.0541667 69.4209936,67.6110577 C70.0708333,67.9315705 70.7158654,68.2388622 71.4310096,68.377484 C72.5516026,68.5938301 73.5091346,69.1851763 74.5043269,69.6959936 C76.0275641,70.4772436 77.6004808,71.1667468 79.1052885,71.9732372 C80.4554487,72.6967949 81.8308494,73.3891026 83.1072917,74.2548878 C85.3360577,75.7669071 87.4554487,77.4143429 89.4678686,79.2028045 C90.2867788,79.9311699 90.9426282,80.8013622 91.6305288,81.6459135 C93.0740385,83.4163462 94.3544872,85.2909455 95.1910256,87.4279647 C95.5980769,88.4680288 95.8873397,89.5357372 95.7435096,90.7 C95.6161058,91.7280449 95.8637019,92.7721154 95.7338942,93.8141827 C95.6032853,94.8602564 95.4895032,95.908734 95.2799679,96.9423878 C95.1393429,97.6375 94.5732372,97.939984 93.9782853,98.1322917 C93.1385417,98.4039263 92.5668269,98.9175481 92.2591346,99.7400641 C92.1413462,100.055769 91.9979167,100.358654 92.1125,100.713221 C92.169391,100.889503 92.0728365,101.058574 92.0099359,101.222035 C91.9241987,101.447997 91.8584936,101.673958 91.8500801,101.919551 C91.825641,102.617869 91.3741186,102.925561 90.6930288,102.723638 C90.4750801,102.658734 90.2663462,102.56899 90.096875,102.421554 C89.5788462,101.972035 88.9798878,101.849038 88.3104167,101.888301 C87.1349359,101.957212 85.9746795,101.905529 84.9021635,101.321795 C84.3773237,101.035737 83.9426282,100.629087 83.4586538,100.288141 C81.0720353,98.6090545 79.1862179,96.4508013 77.4574519,94.1234776 C76.2527244,92.5020833 75.310016,90.7036058 74.0347756,89.1350962 C72.3552885,87.069391 70.8160256,84.9071314 69.4486378,82.6226763 C68.9951122,81.8650641 68.6549679,81.0525641 68.2779647,80.2572917 C67.7290865,79.1002404 67.2078526,77.9231571 66.5608173,76.8217949 C65.5411859,75.0866186 65.2358974,73.1679487 64.9478365,71.2376603 C64.7863782,70.1535256 64.5660256,69.0653846 64.8224359,67.7965545" id="Fill-16" fill="#FEFEFE"></path>
                <path d="M26.961859,99.0122997 C27.1036859,98.9618189 27.1185096,98.8284054 27.1705929,98.7126202 C27.7419071,97.4445913 28.4446314,96.2534856 29.2955929,95.1477163 C28.5580128,96.814383 27.3128205,98.2410657 26.9666667,100.089223 C26.9650641,99.730649 26.9634615,99.371274 26.961859,99.0122997" id="Fill-18" fill="#BFD3B3"></path>
                <path d="M54.1553686,24.1994391 C53.8092147,23.0331731 53.8244391,21.8540865 53.9045673,20.6778045 C53.9650641,19.7867788 54.1072917,18.9025641 54.3717147,18.0439904 C54.4181891,17.8913462 54.4786859,17.743109 54.5375801,17.5944712 C54.5728365,17.5051282 54.6213141,17.3985577 54.7322917,17.4185897 C54.8793269,17.4446314 54.8580929,17.58125 54.8576923,17.690625 C54.8576923,17.7543269 54.8520833,17.8200321 54.8352564,17.8809295 C54.2783654,19.8877404 54.231891,21.9498397 54.1721955,24.0103365 C54.1701923,24.0736378 54.1609776,24.1365385 54.1553686,24.1994391" id="Fill-20" fill="#99B985"></path>
                <path d="M55.2174279,21.628726 C55.0427484,20.7749599 55.1004407,19.9877003 55.1521234,19.201242 C55.1613381,19.0594151 55.1957933,18.9191907 55.216226,18.7781651 C55.2342548,18.6527644 55.2350561,18.4800881 55.3800881,18.4704728 C55.5735978,18.4572516 55.5896234,18.6563702 55.5812099,18.7861779 C55.5199119,19.6884215 55.4437901,20.5898638 55.3692708,21.4909054 C55.3676683,21.5129407 55.3260016,21.5321715 55.2174279,21.628726" id="Fill-22" fill="#9DBC8A"></path>
                <path d="M27.5913862,67.2857772 C24.9752003,68.3186298 22.2067708,68.9396234 19.7264022,70.3226362 C22.0356971,68.4901042 24.9046875,68.1207131 27.5913862,67.2857772" id="Fill-24" fill="#A1BF8F"></path>
                <path d="M17.0066907,70.5198317 C16.6060497,71.1600561 16.173758,71.7678285 15.9413862,72.4881811 C15.9141426,72.5723157 15.861258,72.6808894 15.7370593,72.6191907 C15.6389022,72.5715144 15.6228766,72.4697516 15.6429087,72.3711939 C15.699399,72.0863381 15.8252003,71.8279247 15.9742388,71.5835337 C16.2370593,71.1540465 16.5375401,70.7566106 17.0066907,70.5198317" id="Fill-26" fill="#A4C092"></path>
                <path d="M60.674399,68.4978766 C60.1988381,68.8476362 59.705649,69.1449119 59.2897837,69.5267228 C57.1904247,71.4562099 55.4448317,73.6853766 53.8791266,76.0579728 C53.3354567,76.8820913 52.8358574,77.7350561 52.2865785,78.559976 C52.3939503,77.835617 52.753726,77.2154247 53.1143029,76.6024439 C54.6571715,73.9794471 56.4949119,71.5860176 58.721274,69.5010817 C59.1211138,69.1264824 59.5822516,68.8360176 60.0582131,68.5703926 C60.2344952,68.4722356 60.4191907,68.3572516 60.674399,68.4978766" id="Fill-28" fill="#9ABA86"></path>
                <path d="M58.2551282,72.888101 C58.7739583,71.4890625 59.4806891,70.2286458 60.8616987,69.3913061 C59.9694712,70.5884215 59.1125,71.7382612 58.2551282,72.888101" id="Fill-30" fill="#A0BE8E"></path>
                <path d="M81.2636218,82.3481571 C84.328125,84.5112179 91.7900641,96.8525641 91.0957532,98.3060897 C91.0112179,98.3036859 90.9987981,98.234375 90.9851763,98.1766827 C90.5168269,96.2339744 89.5560897,94.5260417 88.5344551,92.8305288 C86.7892628,89.9346955 84.9939904,87.0757212 82.9122596,84.4058494 C82.3729968,83.7135417 81.7147436,83.1169872 81.2636218,82.3481571" id="Fill-32" fill="#9CBB8A"></path>
                <path d="M86.3338141,86.2160657 C87.5609776,87.6255208 88.8053686,89.0301683 89.3935096,90.8703125 C88.5233173,89.2204728 87.3113782,87.800601 86.3338141,86.2160657" id="Fill-34" fill="#A6C295"></path>
                <path d="M87.9414663,97.1519231 C88.3985978,98.0725962 88.8569311,98.9928686 89.2259215,99.9548077 C89.274399,100.081811 89.3236779,100.268109 89.1578125,100.335817 C88.9534856,100.418349 88.9402644,100.202804 88.8921875,100.085016 C88.598117,99.3630609 88.2151042,98.6775641 87.9923478,97.9259615 C87.9210337,97.6859776 87.8657452,97.4415865 87.8024439,97.1987981 C87.8489183,97.1831731 87.8953926,97.1675481 87.9414663,97.1519231" id="Fill-36" fill="#9EBC8B"></path>
                <path d="M90.4795272,99.6371394 C89.899399,99.2989984 88.9659054,96.9953125 89.0316106,96.1191106 C89.5320112,97.2845753 89.9739183,98.4736779 90.4795272,99.6371394" id="Fill-38" fill="#A3C092"></path>
            </g>
        </g>
    </g>
</svg>
